<?xml version="1.0" encoding="UTF-8"?><svg version="1.1" xmlns="http://www.w3.org/2000/svg" xmlns:xlink="http://www.w3.org/1999/xlink" viewBox="0 0 1600 1200" width="1600" height="1200" x="0px" y="0px">
              
              <!-- ITEM 0 -->
<g transform="translate(84.0 132.0) scale(1.78 1.78) rotate(0.0 400.0 300.0)">
<g transform="translate(-0.0 -0.0)">

<path style="fill:#E6E6E6;" d="M672.876,476.948l12.227-3.821c0.983-0.655,2.074-1.092,3.057-1.965l-18.996,6.114  C670.474,477.166,671.675,477.166,672.876,476.948z M664.251,476.948l27.62-8.952c0.546-0.437,0.873-0.983,1.419-1.419  l-30.895,9.825C663.05,476.729,663.705,476.838,664.251,476.948z M659.448,475.747l36.135-11.572  c0.437-0.327,0.546-0.764,0.983-1.201l-38.101,12.118C658.793,475.528,659.12,475.528,659.448,475.747z M656.609,473.891  l41.485-13.319c0.218-0.327,0.437-0.764,0.655-1.092l-42.795,13.756C656.063,473.563,656.391,473.782,656.609,473.891z   M654.535,471.816l45.197-14.411c0.218-0.328,0.218-0.655,0.437-1.092l-46.179,14.847  C654.317,471.38,654.426,471.707,654.535,471.816z M653.225,469.633l48.035-15.284c0-0.327,0.218-0.655,0.218-1.092l-48.69,15.611  C652.898,469.087,653.007,469.415,653.225,469.633z M652.024,467.231l49.891-16.048c0-0.328,0.109-0.655,0.218-1.092l-50.437,16.048  C651.806,466.685,651.915,466.904,652.024,467.231z M651.151,464.83l51.419-16.485c0-0.327,0.109-0.655,0.109-0.983l-51.856,16.703  C650.932,464.175,651.042,464.502,651.151,464.83z M650.714,461.882c0.109,0.109-0.109,0.218,0,0.327l52.293-16.703  c0-0.327,0.109-0.655,0.109-0.983l-52.075,16.594C650.932,461.336,650.823,461.554,650.714,461.882z M653.443,458.17  c-0.109,0.109-0.218,0.328-0.437,0.328l50.109-16.048c0-0.328-0.109-0.546,0-0.873l-48.799,15.721  C653.88,457.624,653.662,457.952,653.443,458.17z M655.845,455.004l46.834-14.956c0-0.328-0.109-0.546-0.218-0.873l-46.179,14.847  C656.282,454.349,656.063,454.568,655.845,455.004z M657.374,451.729l45.088-14.411c-0.109-0.327-0.109-0.546-0.218-0.873  l-44.433,14.301C657.483,451.183,657.483,451.511,657.374,451.729z M658.138,448.781l43.668-13.865  c-0.109-0.328-0.218-0.437-0.218-0.873l-43.122,13.865C658.247,448.236,658.138,448.454,658.138,448.781z M658.356,445.943  l42.467-13.537c-0.109-0.327-0.218-0.437-0.327-0.764l-42.249,13.428C658.356,445.397,658.356,445.725,658.356,445.943z   M658.138,443.214l41.267-13.21c-0.109-0.327-0.218-0.437-0.328-0.764l-41.048,13.1  C658.138,442.668,658.138,443.105,658.138,443.214z M657.592,440.703l40.284-12.991c-0.109-0.327-0.437-0.546-0.546-0.655  l-40.175,12.882C657.374,440.266,657.483,440.484,657.592,440.703z M695.365,424.982l-39.192,12.445  c0.109,0.327,0.218,0.437,0.328,0.764l39.52-12.664C696.02,425.419,695.693,425.201,695.365,424.982z M693.072,423.017  l-38.21,12.227c0.109,0.328,0.437,0.546,0.546,0.655l38.537-12.336C693.618,423.563,693.291,423.236,693.072,423.017z   M690.016,421.27l-36.463,11.572c0.109,0.328,0.218,0.437,0.328,0.764l37.227-12.009C690.671,421.598,690.452,421.38,690.016,421.27  z M686.195,419.851c-0.109,0.109-0.218-0.109-0.327,0l-32.205,10.262c-0.109,0.218-0.109,0.655-0.109,0.983l34.061-10.917  C687.068,420.179,686.631,419.96,686.195,419.851z M678.007,419.524l-20.852,6.659c-0.655,0.546-1.419,0.983-2.074,1.528  l26.419-8.406C680.409,419.415,679.099,419.415,678.007,419.524z"/>
<g>
	
		<linearGradient id="SVGID_1_-i0" gradientUnits="userSpaceOnUse" x1="5958.4717" y1="-2529.595" x2="7354.1338" y2="-2529.595" gradientTransform="matrix(0.1 0 0 -0.1 0 18)">
		<stop offset="0" style="stop-color:#B9D3FD"/>
		<stop offset="1" style="stop-color:#89B3F4"/>
	</linearGradient>
	<path style="fill:url(#SVGID_1_-i0);" d="M734.666,291.794c1.528,4.585-0.218,9.498-2.511,13.756   c-6.223,11.681-16.266,21.288-28.275,26.856c-6.659,3.166-13.865,5.022-20.742,7.86c-19.978,8.297-36.245,24.891-43.996,45.088   c2.293-13.974-5.022-27.839-13.974-38.865c-8.843-11.026-19.542-20.961-25.873-33.625c-5.459-10.917-5.568-27.074,5.459-32.315   c8.079-3.821,18.232,0.437,26.529-3.057c2.948-1.31,5.568-3.93,5.458-7.096c-0.437-8.079-16.376-7.533-16.812-15.611   c-0.437-9.28,24.018-6.55,20.852-15.393c-1.31-3.712-6.55-4.804-8.297-8.297c-1.856-3.493-1.747-8.406,1.419-10.917   c4.039-3.275,10.153-0.655,15.284-1.856c5.786-1.31,9.498-7.205,10.699-13.1c1.201-5.895,0.546-11.9,1.419-17.795   c2.074-14.52,13.974-27.074,28.275-30.131c14.301-3.057,30.24,3.712,37.991,16.157c3.166,5.131,4.913,12.009,1.528,16.921   c-2.948,4.148-9.279,6.878-8.734,11.9c0.655,6.878,13.428,7.533,13.646,14.411c0.218,8.079-16.376,8.079-15.939,16.157   c0.218,3.603,4.039,5.677,6.332,8.515c4.367,5.24,2.62,14.301-3.384,17.576c-2.402,1.31-5.24,1.856-7.096,3.712   c-4.804,4.694-0.109,12.991,5.568,16.485C725.169,282.624,732.592,285.353,734.666,291.794z"/>
	
		<linearGradient id="SVGID_2_-i0" gradientUnits="userSpaceOnUse" x1="6414.0796" y1="-2855.1492" x2="7869.9307" y2="-2855.1492" gradientTransform="matrix(0.1 0 0 -0.1 0 18)">
		<stop offset="0" style="stop-color:#DEEAFE"/>
		<stop offset="1" style="stop-color:#E9F1FE"/>
	</linearGradient>
	<path style="fill:url(#SVGID_2_-i0);" d="M692.745,292.34c3.384-1.856,6.987-3.603,9.716-6.441c5.568-6.114,5.24-15.284,5.677-23.581   c0.437-8.297,3.384-18.013,11.354-20.197c6.659-1.856,15.066,2.183,19.978-2.62c1.856-1.747,2.62-4.367,3.93-6.55   c5.677-9.498,20.633-8.734,28.93-1.419c8.188,7.314,11.354,18.668,14.083,29.367c0.983,3.93,1.092,9.389-2.729,10.48   c-3.712,0.983-7.424-3.603-10.917-2.183c-2.838,1.092-3.057,5.131-1.965,8.079c0.983,2.838,2.729,5.786,2.074,8.843   c-1.31,5.677-9.279,6.004-14.956,4.476c-5.677-1.528-12.991-3.057-16.266,1.856c3.603,11.463,6.659,25.437-1.419,34.498   c-9.279,10.371-26.419,9.28-40.284,10.59c-25.764,2.402-43.996,22.052-58.516,43.559   C640.561,345.069,661.195,309.48,692.745,292.34z"/>
</g>
<g>
	<path style="fill:#FFFFFF;" d="M660.43,364.72c-0.109,0-0.109,0-0.218,0c-0.328-0.109-0.437-0.437-0.328-0.655   c13.101-40.066,33.952-67.904,72.053-95.961c7.096-5.24,28.494-14.083,37.773-14.847c0.218,0,0.546,0.218,0.546,0.546   s-0.218,0.546-0.546,0.546c-8.843,0.764-30.349,9.607-37.118,14.629c-37.991,27.948-58.734,55.568-71.725,95.415   C660.867,364.502,660.649,364.72,660.43,364.72z"/>
</g>
<path style="fill:#FFFFFF;" d="M680.627,247.252l-4.367-12.009c-1.528-0.109-3.166,0.109-4.694,0.655l4.694,12.882  c0.218,0.764-0.109,1.528-0.873,1.747c-0.764,0.218-1.528-0.109-1.747-0.873l-4.694-12.664c-1.419,0.873-2.62,2.074-3.603,3.384  l3.93,10.699c0.218,0.764-0.109,1.528-0.873,1.747c-0.764,0.218-1.528-0.109-1.747-0.873l-3.057-8.406  c-1.747,4.367-1.856,9.935,0.109,15.393c0,0.109,0.109,0.218,0.109,0.328c-0.983,0.546-2.074,1.201-2.948,1.965  c-2.729,1.965-6.223,5.349-7.424,10.153l1.31,0.328c1.092-4.367,4.367-7.533,6.878-9.28c0.873-0.655,1.747-1.201,2.729-1.747  c2.074,4.585,5.458,8.297,9.17,10.262l-2.948-7.969c-0.218-0.764,0.109-1.528,0.873-1.747s1.528,0.109,1.747,0.873l3.821,10.262  c1.638,0.437,3.275,0.546,4.913,0.218l-4.367-12.009c-0.218-0.764,0.109-1.528,0.873-1.747c0.764-0.218,1.528,0.109,1.747,0.873  l4.476,12.118c1.419-0.655,2.729-1.638,3.821-2.729l-4.039-10.917c-0.218-0.764,0.109-1.528,0.873-1.747  c0.764-0.218,1.528,0.109,1.747,0.873l3.493,9.389c1.092-1.638,2.074-3.384,2.948-5.24l-2.183-5.895  c-0.218-0.764,0.109-1.528,0.873-1.747c0.764-0.218,1.528,0.109,1.747,0.873l1.201,3.166c2.183-5.24,3.603-10.371,5.459-12.009  c-3.057-0.655-7.314-3.493-12.009-6.114l1.528,4.039c0.218,0.764-0.109,1.528-0.873,1.747c-0.764,0.218-1.528-0.109-1.747-0.873  l-2.511-6.878c-1.856-0.873-3.712-1.528-5.568-1.965l3.821,10.59c0.218,0.764-0.109,1.528-0.873,1.747  C681.719,248.344,680.954,248.016,680.627,247.252z"/>
<rect x="342.853" y="380.986" style="fill:#D6D7D8;" width="121.835" height="135.481"/>
<rect x="267.415" y="512.101" style="fill:#428DFC;" width="272.709" height="10.48"/>
<linearGradient id="SVGID_3_-i0" gradientUnits="userSpaceOnUse" x1="1361.9219" y1="-2771.7815" x2="6713.4741" y2="-2771.7815" gradientTransform="matrix(0.1 0 0 -0.1 0 18)">
	<stop offset="0" style="stop-color:#EEEEEE"/>
	<stop offset="1" style="stop-color:#D6D7D8"/>
</linearGradient>
<rect x="136.192" y="121.924" style="fill:url(#SVGID_3_-i0);" width="535.155" height="346.508"/>
<rect x="145.581" y="130.549" style="fill:#FFFFFF;" width="516.378" height="285.372"/>
<g>
	
		<rect x="379.613" y="437.736" transform="matrix(-0.7071 -0.7071 0.7071 -0.7071 343.4806 1027.6814)" style="fill:#A1C3FC;" width="9.934" height="9.934"/>
	
		<rect x="398.775" y="437.721" transform="matrix(-0.7071 -0.7071 0.7071 -0.7071 376.2033 1041.2053)" style="fill:#FFFFFF;" width="9.934" height="9.934"/>
	
		<rect x="417.938" y="437.751" transform="matrix(-0.7071 -0.7071 0.7071 -0.7071 408.8945 1054.8064)" style="fill:#1D72D8;" width="9.934" height="9.934"/>
</g>
<path style="fill:#D3E3FE;" d="M660.539,81.422c0,0.218,0,0.437,0,0.655c0,9.061,7.314,16.376,16.376,16.376  s16.376-7.314,16.376-16.376c0-0.218,0-0.437,0-0.655H660.539z"/>
<path style="fill:#A1C3FC;" d="M719.164,41.574c0,0.328,0,0.764,0,1.092c0,14.956,12.118,27.074,27.074,27.074  s27.074-12.118,27.074-27.074c0-0.328,0-0.764,0-1.092C773.313,41.574,719.164,41.574,719.164,41.574z"/>
<path style="fill:#F4F4F4;" d="M32.698,13.19c0,0.655,0,1.201,0,1.856c0,25.218,20.524,45.743,45.743,45.743  s45.743-20.524,45.743-45.743c0-0.655,0-1.201,0-1.856C124.183,13.19,32.698,13.19,32.698,13.19z"/>
<path style="fill:#E7EFFE;" d="M80.624,13.19c0,0.437,0,0.873,0,1.31c0,18.341,14.847,33.188,33.188,33.188S147,32.841,147,14.5  c0-0.437,0-0.873,0-1.31C147,13.19,80.624,13.19,80.624,13.19z"/>
<g>
	
		<linearGradient id="SVGID_4_-i0" gradientUnits="userSpaceOnUse" x1="4547.144" y1="-2848.5498" x2="5952.8911" y2="-2848.5498" gradientTransform="matrix(-0.0964 0.0265 -0.0265 -0.0964 553.6074 -2.2324)">
		<stop offset="0" style="stop-color:#B9D3FD"/>
		<stop offset="1" style="stop-color:#89B3F4"/>
	</linearGradient>
	<path style="fill:url(#SVGID_4_-i0);" d="M61.41,450.31c-0.218,4.803,2.729,9.17,6.114,12.664c9.17,9.716,21.507,16.376,34.607,18.559   c7.314,1.201,14.847,1.201,22.271,2.074c21.616,2.729,41.812,14.52,54.804,31.987c-6.004-12.991-2.511-28.384,3.166-41.485   c5.677-13.1,13.428-25.546,16.157-39.52c2.402-12.009-1.856-27.839-13.974-29.913c-8.952-1.528-17.686,5.349-26.638,4.039   c-3.166-0.437-6.55-2.293-7.205-5.459c-1.747-7.969,13.974-11.681,12.118-19.651c-2.074-9.17-25.109,0-24.345-9.28   c0.328-3.93,5.022-6.332,5.895-10.262s-0.546-8.624-4.258-10.153c-4.804-2.074-10.044,2.074-15.284,2.293   c-6.004,0.328-11.135-4.476-13.865-9.825s-3.712-11.463-6.114-16.921c-5.895-13.537-20.742-22.598-35.481-21.725   c-14.738,0.873-28.384,11.681-32.642,25.873c-1.747,5.786-1.638,12.991,3.057,16.921c3.93,3.275,10.808,4.148,11.681,9.17   c1.201,6.878-11.026,10.917-9.389,17.686c1.856,7.969,18.122,3.493,19.76,11.463c0.764,3.603-2.402,6.659-3.821,9.935   c-2.838,6.223,1.31,14.52,7.969,16.157c2.62,0.655,5.568,0.327,7.969,1.638c5.895,3.275,3.603,12.555-0.983,17.467   C68.179,439.065,61.847,443.541,61.41,450.31z"/>
	
		<linearGradient id="SVGID_5_-i0" gradientUnits="userSpaceOnUse" x1="5005.2349" y1="-3177.0505" x2="6471.7524" y2="-3177.0505" gradientTransform="matrix(-0.0964 0.0265 -0.0265 -0.0964 553.6074 -2.2324)">
		<stop offset="0" style="stop-color:#DEEAFE"/>
		<stop offset="1" style="stop-color:#E9F1FE"/>
	</linearGradient>
	<path style="fill:url(#SVGID_5_-i0);" d="M102.458,439.72c-3.821-0.873-7.751-1.638-11.135-3.712   c-7.096-4.476-9.17-13.537-11.79-21.397c-2.62-7.86-8.079-16.594-16.376-16.594c-6.987,0-14.083,6.223-20.087,2.838   c-2.293-1.31-3.712-3.603-5.568-5.349c-7.969-7.642-22.38-2.948-28.384,6.332s-6.004,21.179-5.895,32.315   c0.109,4.039,1.419,9.389,5.459,9.389c3.821,0,6.223-5.459,10.044-5.022c3.057,0.327,4.367,4.258,4.148,7.314   c-0.218,3.057-1.092,6.332,0.328,9.061c2.729,5.24,10.699,3.384,15.721,0.327c5.022-3.057,11.79-6.441,16.266-2.511   c-0.437,12.118,0.328,26.528,10.59,33.079c11.79,7.533,28.166,1.965,41.922-0.437c25.655-4.585,48.69,9.716,68.45,26.747   C167.088,476.948,137.611,447.908,102.458,439.72z"/>
	<path style="fill:none;stroke:#428DFC;stroke-width:2;stroke-linecap:round;stroke-miterlimit:10;" d="M178.878,517.232   c-8.734-22.817-15.721-46.288-21.07-70.088"/>
	
		<ellipse transform="matrix(-0.2235 -0.9747 0.9747 -0.2235 -240.659 697.7426)" style="fill:#23286B;" cx="157.599" cy="444.732" rx="4.694" ry="12.445"/>
	<path style="fill:none;stroke:#428DFC;stroke-width:2;stroke-linecap:round;stroke-miterlimit:10;" d="M157.153,444.305   c-2.948-13.537-5.349-27.074-7.205-40.83"/>
	
		<ellipse transform="matrix(-0.3174 -0.9483 0.9483 -0.3174 -182.6591 669.1458)" style="fill:#23286B;" cx="149.504" cy="400.314" rx="5.568" ry="14.957"/>
	<path style="fill:none;stroke:#428DFC;stroke-width:2;stroke-linecap:round;stroke-miterlimit:10;" d="M149.402,399.873   c-1.419-11.354-2.511-22.708-3.275-34.061"/>
	
		<ellipse transform="matrix(-0.0106 -0.9999 0.9999 -0.0106 -213.3985 512.5897)" style="fill:#23286B;" cx="146.883" cy="361.865" rx="5.567" ry="14.956"/>
	<path style="fill:none;stroke:#428DFC;stroke-width:2;stroke-linecap:round;stroke-miterlimit:10;" d="M145.908,361.008   c-0.437-8.624-0.655-17.358-0.764-26.092"/>
	
		<ellipse transform="matrix(-0.0106 -0.9999 0.9999 -0.0106 -183.616 479.1787)" style="fill:#23286B;" cx="145.246" cy="330.426" rx="7.532" ry="20.087"/>
	<path style="fill:none;stroke:#428DFC;stroke-width:2;stroke-linecap:round;stroke-miterlimit:10;" d="M145.144,329.021   c0.109-5.786,0.218-11.572,0.437-17.358"/>
</g>
<path style="fill:#FFFFFF;" d="M132.808,484.917l4.367-12.009c1.528-0.109,3.166,0.109,4.694,0.655l-4.694,12.882  c-0.218,0.764,0.109,1.528,0.873,1.747s1.528-0.109,1.747-0.873l4.694-12.664c1.419,0.873,2.62,2.074,3.603,3.384l-3.93,10.699  c-0.218,0.764,0.109,1.528,0.873,1.747s1.528-0.109,1.747-0.873l3.057-8.406c1.747,4.367,1.856,9.935-0.109,15.393  c0,0.109-0.109,0.218-0.109,0.328c0.983,0.546,2.074,1.201,2.948,1.965c2.729,1.965,6.223,5.349,7.424,10.153l-1.31,0.328  c-1.092-4.367-4.367-7.533-6.878-9.28c-0.873-0.655-1.747-1.201-2.729-1.747c-2.074,4.585-5.459,8.297-9.17,10.262l2.948-7.969  c0.218-0.764-0.109-1.528-0.873-1.747c-0.764-0.218-1.528,0.109-1.747,0.873l-3.821,10.262c-1.638,0.437-3.275,0.546-4.913,0.218  l4.367-12.009c0.218-0.764-0.109-1.528-0.873-1.747s-1.528,0.109-1.747,0.873l-4.476,12.118c-1.419-0.655-2.729-1.638-3.821-2.729  l4.039-10.917c0.218-0.764-0.109-1.528-0.873-1.747c-0.764-0.218-1.528,0.109-1.747,0.873l-3.493,9.389  c-1.092-1.638-2.074-3.384-2.948-5.24l2.183-5.895c0.218-0.764-0.109-1.528-0.873-1.747s-1.528,0.109-1.747,0.873l-1.201,3.166  c-2.183-5.24-3.603-10.371-5.459-12.009c3.057-0.655,7.314-3.493,12.009-6.114l-1.528,4.039c-0.218,0.764,0.109,1.528,0.873,1.747  s1.528-0.109,1.747-0.873l2.511-6.878c1.856-0.873,3.712-1.528,5.568-1.965l-3.821,10.59c-0.218,0.764,0.109,1.528,0.873,1.747  C131.716,486.009,132.48,485.681,132.808,484.917z"/>
<path style="fill:#B3C9EE;" d="M109.555,136.007l-8.188-0.983c-0.764,0.109-1.528,0.109-2.293,0.328l12.773,1.419  C110.974,136.553,110.319,136.225,109.555,136.007z M114.576,138.3l-18.559-2.074c-0.437,0.109-0.764,0.328-1.201,0.437  l20.742,2.402C115.231,138.736,114.904,138.518,114.576,138.3z M117.087,140.265l-24.236-2.729  c-0.328,0.109-0.546,0.328-0.873,0.437l25.546,2.948C117.415,140.592,117.196,140.483,117.087,140.265z M118.288,142.121  l-27.839-3.166c-0.218,0.109-0.437,0.328-0.655,0.437l28.712,3.275C118.507,142.448,118.397,142.23,118.288,142.121z   M118.943,143.867l-30.349-3.493c-0.218,0.109-0.328,0.328-0.546,0.546l31.005,3.493  C118.943,144.195,118.943,143.977,118.943,143.867z M119.162,145.505l-32.205-3.712c-0.109,0.218-0.328,0.328-0.437,0.546  l32.642,3.712C119.162,145.942,119.162,145.723,119.162,145.505z M119.162,147.252l-33.515-3.821  c-0.109,0.218-0.218,0.328-0.437,0.546l33.843,3.93C119.162,147.579,119.162,147.47,119.162,147.252z M119.052,148.889l-34.498-3.93  c-0.109,0.218-0.218,0.328-0.328,0.546l34.825,3.93C119.052,149.326,119.052,149.108,119.052,148.889z M118.507,150.745  c0-0.109,0.109-0.109,0.109-0.218l-35.044-4.039c-0.109,0.218-0.218,0.328-0.328,0.546l34.935,4.039  C118.288,150.964,118.397,150.854,118.507,150.745z M115.996,152.164c0.109,0,0.218-0.109,0.328-0.109l-33.625-3.821  c-0.109,0.218-0.109,0.328-0.218,0.546l32.751,3.712C115.559,152.383,115.777,152.274,115.996,152.164z M113.703,153.365  l-31.441-3.603c-0.109,0.218-0.109,0.328-0.109,0.546l31.005,3.493C113.266,153.693,113.485,153.584,113.703,153.365z   M111.956,154.894l-30.24-3.493c0,0.218-0.109,0.328-0.109,0.546l29.804,3.384C111.738,155.221,111.847,155.003,111.956,154.894z   M110.755,156.422l-29.258-3.384c0,0.218,0,0.328-0.109,0.546l28.93,3.275C110.537,156.75,110.646,156.64,110.755,156.422z   M109.882,158.06l-28.494-3.275c0,0.218,0,0.328,0,0.546l28.275,3.275C109.664,158.387,109.773,158.169,109.882,158.06z   M109.227,159.697l-27.729-3.166c0,0.218,0,0.328,0,0.546l27.511,3.166C109.118,160.025,109.227,159.806,109.227,159.697z   M108.899,161.335l-27.074-3.057c0,0.218,0.109,0.437,0.109,0.546l26.965,3.057C108.899,161.662,108.899,161.444,108.899,161.335z   M82.589,160.571l26.31,3.057c0-0.218,0-0.328,0-0.546l-26.529-3.057C82.371,160.134,82.48,160.352,82.589,160.571z M83.463,162.317  l25.655,2.948c0-0.218-0.109-0.437-0.109-0.546l-25.873-2.948C83.244,161.881,83.354,162.099,83.463,162.317z M84.773,164.173  l24.454,2.838c0-0.218,0-0.328,0-0.546l-25-2.838C84.445,163.737,84.554,163.955,84.773,164.173z M86.629,166.029  c0.109,0,0.109,0.109,0.218,0.109l21.616,2.511c0.109-0.109,0.218-0.328,0.328-0.546l-22.817-2.62  C86.192,165.592,86.41,165.811,86.629,166.029z M91.323,168.322l13.974,1.638c0.546-0.109,1.092-0.218,1.638-0.328l-17.686-2.074  C89.904,167.776,90.668,168.103,91.323,168.322z"/>
<path style="fill:#B3C9EE;" d="M687.068,497.253l12.773,0.546c1.201-0.218,2.402-0.328,3.493-0.764l-19.978-0.655  C684.775,496.598,685.867,497.035,687.068,497.253z M678.989,494.306l29.039,0.983c0.655-0.218,1.092-0.546,1.856-0.873  l-32.424-1.201C678.007,493.76,678.443,494.087,678.989,494.306z M674.95,491.576l37.882,1.31c0.546-0.218,0.764-0.546,1.31-0.764  l-39.956-1.528C674.404,491.14,674.732,491.249,674.95,491.576z M672.767,488.847l43.559,1.528c0.327-0.218,0.655-0.546,0.983-0.764  l-44.869-1.638C672.439,488.41,672.657,488.738,672.767,488.847z M671.566,486.227l47.489,1.747  c0.328-0.218,0.437-0.546,0.764-0.873l-48.472-1.747C671.566,485.681,671.566,486.009,671.566,486.227z M671.02,483.716  l50.328,1.856c0.109-0.328,0.437-0.546,0.655-0.873l-51.092-1.856C671.02,483.061,671.02,483.389,671.02,483.716z M670.802,480.987  l52.402,1.965c0.109-0.328,0.327-0.546,0.655-0.873l-52.948-2.074C670.802,480.55,670.802,480.659,670.802,480.987z   M670.802,478.476l53.93,1.965c0.109-0.328,0.328-0.546,0.437-0.873l-54.476-1.965C670.802,477.821,670.802,478.148,670.802,478.476  z M671.457,475.528c0,0.218-0.109,0.218-0.109,0.328l54.804,2.074c0.109-0.327,0.328-0.546,0.437-0.873l-54.585-2.074  C671.784,475.201,671.566,475.31,671.457,475.528z M675.168,473.017c-0.218,0-0.328,0.218-0.546,0.218l52.62,1.856  c0.109-0.327,0.109-0.546,0.328-0.873l-51.201-1.856C675.823,472.581,675.496,472.799,675.168,473.017z M678.553,470.834  l49.127,1.856c0.109-0.328,0.109-0.546,0.109-0.873l-48.472-1.747C679.208,470.288,678.88,470.506,678.553,470.834z   M681.064,468.323l47.271,1.747c0-0.328,0.109-0.546,0.109-0.873l-46.616-1.638C681.391,467.777,681.282,468.105,681.064,468.323z   M682.81,465.812l45.743,1.747c0-0.327,0-0.546,0.109-0.873l-45.197-1.638C683.029,465.266,682.919,465.485,682.81,465.812z   M683.902,463.192l44.542,1.638c0-0.327,0-0.546-0.109-0.873l-44.214-1.747C684.23,462.646,684.12,462.974,683.902,463.192z   M684.775,460.572l43.341,1.638c0-0.327,0-0.546-0.109-0.873l-43.013-1.638C684.885,460.026,684.775,460.354,684.775,460.572z   M685.103,457.952l42.358,1.528c0-0.327-0.218-0.655-0.218-0.873l-42.14-1.528C684.994,457.406,685.103,457.733,685.103,457.952z   M725.933,455.987l-41.157-1.638c0,0.328,0,0.546,0.109,0.873l41.485,1.528C726.37,456.642,726.151,456.314,725.933,455.987z   M724.404,453.367l-40.066-1.528c0,0.327,0.218,0.655,0.218,0.873l40.502,1.528C724.732,454.022,724.623,453.694,724.404,453.367z   M722.112,450.637l-38.21-1.528c0,0.328,0,0.546,0.109,0.873l39.083,1.419C722.658,451.292,722.439,450.965,722.112,450.637z   M719.055,448.017c-0.218,0-0.218-0.109-0.328-0.109l-33.843-1.31c-0.109,0.218-0.327,0.546-0.437,0.873l35.699,1.31  C719.71,448.672,719.383,448.345,719.055,448.017z M711.522,445.07l-21.834-0.873c-0.873,0.218-1.638,0.437-2.511,0.655l27.62,1.092  C713.706,445.725,712.505,445.288,711.522,445.07z"/>

</g>
</g>

<!-- ITEM 1 -->
<g transform="translate(843.0 349.0) scale(1.34 1.342560553633218) rotate(13.103768127982503 199.99999999999997 144.5)">
<g transform="translate(-0.0 -0.0)">

<path fill="#1D72D8" d="M244.408,221.156c5.258-2.459,10.23-2.331,14.956,0V14.322c-3.562-1.942-8.469-2.049-14.956,0  L244.408,221.156L244.408,221.156z"/>
<rect x="56.066" y="14.274" fill="#428DFC" width="188.981" height="206.975"/>
<rect x="208.496" y="16.756" fill="#81AEF2" width="16.368" height="35.985"/>
<polygon fill="#428DFC" points="373.018,289 259.183,221.248 259.183,14.274 373.762,70.36 "/>
<polygon fill="#FFFFFF" points="270.095,229.19 369.05,286.517 369.05,73.826 260.141,21.468 249.017,21.771 "/>
<rect x="70.202" y="21.719" fill="#D6D7D8" width="178.565" height="206.975"/>
<polygon fill="#EEEEEE" points="248.766,228.694 73.922,239.117 73.922,32.143 248.766,21.719 "/>
<polygon fill="#EEEEEE" points="254.719,229.19 353.673,286.517 353.673,74.332 249.017,21.67 "/>
<polygon fill="#D6D7D8" points="248.766,228.694 346.233,286.767 346.233,79.791 248.766,21.719 "/>
<linearGradient id="SVGID_1_-i1" gradientUnits="userSpaceOnUse" x1="2313.7161" y1="2014.0402" x2="2818.9124" y2="2014.0402" gradientTransform="matrix(0.1782 0 0 0.1782 -163.5382 -205.4038)">
	<stop offset="0" style="stop-color:#D6D7D8"/>
	<stop offset="1" style="stop-color:#EEEEEE"/>
</linearGradient>
<polygon fill="url(#SVGID_1_-i1)" points="248.766,228.694 338.792,285.278 338.792,78.302 248.766,21.719 "/>
<rect x="352.681" y="73.835" fill="#D6D7D8" width="16.368" height="212.435"/>
<g>
	<polygon fill="#D6D7D8" points="320.936,115.562 262.159,80.881 262.159,67.597 320.936,102.277  "/>
	<polygon fill="#D6D7D8" points="320.936,143.605 262.159,108.924 262.159,95.641 320.936,130.321  "/>
	<polygon fill="#D6D7D8" points="320.936,171.648 262.159,136.968 262.159,123.683 320.936,158.364  "/>
	<polygon fill="#D6D7D8" points="320.936,199.692 262.159,165.011 262.159,151.728 320.936,186.407  "/>
	<polygon fill="#D6D7D8" points="320.936,227.734 262.159,193.054 262.159,179.771 320.936,214.452  "/>
	<polygon fill="#D6D7D8" points="320.936,255.778 262.159,221.098 262.159,207.814 320.936,242.494  "/>
</g>
<g>
	<polygon fill="#F6F6F6" points="226.446,77.916 98.475,84.278 98.475,70.995 226.446,64.632  "/>
	<polygon fill="#F6F6F6" points="226.446,105.959 98.475,112.323 98.475,99.038 226.446,92.675  "/>
	<polygon fill="#F6F6F6" points="226.446,134.002 98.475,140.365 98.475,127.083 226.446,120.718  "/>
	<polygon fill="#F6F6F6" points="226.446,162.046 98.475,168.409 98.475,155.125 226.446,148.762  "/>
	<polygon fill="#F6F6F6" points="226.446,190.088 98.475,196.453 98.475,183.169 226.446,176.806  "/>
	<polygon fill="#F6F6F6" points="226.446,218.133 98.475,224.496 98.475,211.212 226.446,204.848  "/>
</g>
<polygon fill="#A1C3FC" points="116.416,73.632 111.125,68.078 116.675,62.784 121.966,68.337 "/>
<polygon fill="#A1C3FC" points="54.212,174.964 48.921,169.41 54.471,164.116 59.762,169.67 "/>
<polygon fill="#FFFFFF" points="81.838,200.725 76.547,195.171 82.098,189.877 87.389,195.431 "/>
<rect x="24.085" y="6.6" transform="matrix(-0.2057 0.9786 -0.9786 -0.2057 49.3768 -14.1742)" fill="#E94A47" width="12.711" height="12.703"/>
<polygon fill="#23286B" points="367.447,137.963 379.746,134.781 382.926,147.089 370.627,150.27 "/>
<g>
	<path fill="#23286B" d="M129.559,45.758c-0.212,0-0.404-0.143-0.457-0.358c-2.606-10.545-11.407-18.318-18.782-23.912   C95.349,10.134,72.47-2.496,48.488,1.805c-0.255,0.05-0.5-0.124-0.547-0.381c-0.046-0.256,0.124-0.501,0.381-0.547   c24.326-4.361,47.449,8.393,62.568,19.858c7.499,5.688,16.451,13.605,19.128,24.437c0.062,0.252-0.091,0.508-0.344,0.57   C129.634,45.753,129.597,45.758,129.559,45.758z"/>
</g>
<g>
	<path fill="#23286B" d="M0.471,84.589c-0.048,0-0.097-0.008-0.145-0.023c-0.248-0.08-0.383-0.346-0.302-0.593   c1.176-3.622,2.472-6.643,4.979-9.614c2.184-2.588,4.591-4.739,6.778-6.059c11.498-6.933,21.138-9.307,29.477-7.253   c0.252,0.062,0.407,0.316,0.345,0.57c-0.062,0.254-0.313,0.41-0.57,0.345c-8.082-1.987-17.492,0.348-28.766,7.146   c-2.101,1.268-4.426,3.348-6.546,5.86c-2.406,2.853-3.66,5.779-4.801,9.296C0.853,84.462,0.67,84.589,0.471,84.589z"/>
</g>
<g>
	<path fill="#23286B" d="M373.811,174.275c-18.338,0-32.658-3.911-50.592-13.288c-0.231-0.121-0.319-0.405-0.2-0.636   c0.121-0.231,0.406-0.32,0.636-0.2c21.504,11.244,37.772,14.561,62.172,12.685c8.055-0.62,12.837-2.558,13.248-4.067   c0.068-0.251,0.328-0.4,0.578-0.331c0.251,0.069,0.398,0.328,0.331,0.578c-0.611,2.244-6.272,4.157-14.085,4.758   C381.648,174.105,377.641,174.275,373.811,174.275z"/>
</g>
<g>
	<path fill="#A1C3FC" d="M218.9,120.062c0.449-4.53-1.788-8.548-4.156-12.801c-0.813-1.46-1.643-2.957-2.359-4.481v30.83   c0.672-1.245,1.434-2.465,2.189-3.67C216.528,126.815,218.549,123.585,218.9,120.062z"/>
	<path fill="#A1C3FC" d="M219.486,65.871c1.118-6.36-1.531-12.288-4.336-18.563c-0.966-2.162-1.949-4.385-2.767-6.619v40.445   c0.808-1.72,1.754-3.381,2.682-5.001C217.007,72.745,218.84,69.546,219.486,65.871z"/>
	<path fill="#A1C3FC" d="M214.965,152.864c-0.518-1.335-1.242-2.635-1.943-3.894c-0.214-0.383-0.427-0.771-0.638-1.16v26.249   C215.225,166.913,217.532,159.475,214.965,152.864z"/>
	<path fill="#A1C3FC" d="M226.891,38.939c0.876,2.679,2.081,5.376,3.247,7.983c0.204,0.457,0.408,0.916,0.611,1.374V16.756h-4.154   C224.556,23.99,224.56,31.82,226.891,38.939z"/>
	<path fill="#A1C3FC" d="M225.362,142.06c0.295,2.295,1.418,4.314,2.609,6.45c0.717,1.287,1.458,2.617,1.999,4.011   c0.339,0.873,0.592,1.758,0.78,2.651v-26.767c-0.411,0.684-0.831,1.362-1.251,2.033   C227.097,134.276,224.828,137.901,225.362,142.06z"/>
	<path fill="#A1C3FC" d="M230.01,76.6c-1.275,2.225-2.595,4.527-3.502,6.925c-2.077,5.486-2.026,11.761,0.137,17.213   c0.816,2.056,1.95,4.093,3.046,6.063c0.354,0.636,0.708,1.275,1.056,1.919V75.304C230.504,75.739,230.257,76.171,230.01,76.6z"/>
	<path fill="#FFFFFF" d="M212.384,17.054c0.027-0.1,0.057-0.199,0.085-0.298h-0.085V17.054z"/>
	<path fill="#FFFFFF" d="M215.37,130.44c2.013-3.216,4.094-6.54,4.464-10.285c0.479-4.824-1.935-9.161-4.269-13.354   c-1.096-1.969-2.23-4.007-3.046-6.063c-0.052-0.13-0.087-0.266-0.137-0.397v2.439c0.717,1.525,1.546,3.022,2.359,4.481   c2.369,4.254,4.606,8.271,4.156,12.801c-0.349,3.524-2.372,6.753-4.327,9.877c-0.755,1.207-1.517,2.425-2.189,3.67v2.111   C213.174,133.956,214.256,132.221,215.37,130.44z"/>
	<path fill="#FFFFFF" d="M215.883,76.6c1.896-3.308,3.857-6.73,4.53-10.566c1.168-6.643-1.664-12.982-4.403-19.112   c-1.165-2.609-2.372-5.306-3.247-7.983c-0.141-0.431-0.255-0.872-0.38-1.309v3.057c0.818,2.235,1.801,4.459,2.767,6.619   c2.805,6.276,5.453,12.204,4.336,18.563c-0.646,3.673-2.479,6.873-4.42,10.26c-0.928,1.62-1.874,3.281-2.682,5.001v2.388   C213.291,81.124,214.609,78.825,215.883,76.6z"/>
	<path fill="#FFFFFF" d="M217.504,175.561h-0.508"/>
	<path fill="#FFFFFF" d="M226.647,100.738c-2.164-5.453-2.215-11.727-0.137-17.213c0.907-2.398,2.226-4.699,3.502-6.925   c0.246-0.429,0.494-0.862,0.738-1.296v-1.948c-0.496,0.92-1.02,1.839-1.556,2.775c-1.293,2.259-2.632,4.592-3.565,7.059   c-2.159,5.704-2.106,12.226,0.143,17.896c0.839,2.114,1.987,4.178,3.099,6.174c0.656,1.177,1.298,2.336,1.879,3.492v-2.032   c-0.348-0.643-0.702-1.284-1.056-1.919C228.597,104.832,227.463,102.796,226.647,100.738z"/>
	<path fill="#FFFFFF" d="M225.995,39.233c0.892,2.725,2.107,5.445,3.282,8.075c0.503,1.126,0.999,2.239,1.472,3.346v-2.358   c-0.203-0.459-0.408-0.917-0.611-1.374c-1.165-2.609-2.372-5.306-3.247-7.983c-2.331-7.121-2.335-14.95-0.295-22.185h-0.977   C223.602,24.097,223.634,32.02,225.995,39.233z"/>
	<path fill="#FFFFFF" d="M212.384,175.176h0.565c3.048-7.553,5.676-15.487,2.893-22.653c-0.541-1.394-1.282-2.725-1.999-4.011   c-0.523-0.938-1.028-1.854-1.46-2.779v2.078c0.211,0.389,0.424,0.777,0.638,1.16c0.701,1.258,1.426,2.56,1.943,3.894   c2.567,6.611,0.261,14.05-2.581,21.196C212.384,174.059,212.384,175.176,212.384,175.176z"/>
	<path fill="#A1C3FC" d="M215.841,152.522c2.783,7.166,0.155,15.1-2.893,22.653h3.695c3.036-7.483,5.731-15.354,3.03-22.312   c-0.518-1.335-1.242-2.635-1.943-3.894c-1.181-2.12-2.404-4.315-2.721-6.79c-0.576-4.494,1.888-8.433,4.272-12.241   c1.955-3.123,3.977-6.354,4.327-9.877c0.449-4.53-1.788-8.548-4.156-12.801c-1.111-1.996-2.259-4.06-3.099-6.174   c-2.25-5.669-2.302-12.192-0.143-17.896c0.933-2.468,2.272-4.802,3.565-7.059c1.942-3.387,3.775-6.586,4.42-10.26   c1.118-6.36-1.531-12.288-4.336-18.563c-1.175-2.631-2.39-5.351-3.282-8.075c-2.36-7.214-2.393-15.136-0.375-22.478h-3.732   c-0.028,0.1-0.057,0.199-0.085,0.298V37.63c0.124,0.437,0.238,0.877,0.38,1.309c0.876,2.679,2.081,5.376,3.247,7.983   c2.739,6.129,5.571,12.468,4.403,19.112c-0.673,3.836-2.634,7.258-4.53,10.566c-1.275,2.224-2.593,4.524-3.5,6.921v16.82   c0.049,0.131,0.085,0.267,0.137,0.397c0.816,2.056,1.95,4.093,3.046,6.063c2.335,4.193,4.749,8.53,4.269,13.354   c-0.371,3.743-2.453,7.069-4.464,10.285c-1.115,1.781-2.197,3.517-2.988,5.282v10.011c0.432,0.926,0.937,1.841,1.46,2.779   C214.56,149.798,215.301,151.128,215.841,152.522z"/>
	<path fill="#FFFFFF" d="M219.775,76.132c-1.293,2.258-2.632,4.592-3.565,7.059c-2.159,5.704-2.106,12.226,0.143,17.896   c0.839,2.114,1.987,4.178,3.099,6.174c2.369,4.254,4.606,8.271,4.156,12.801c-0.349,3.524-2.372,6.753-4.327,9.877   c-2.384,3.809-4.849,7.747-4.272,12.241c0.317,2.475,1.54,4.669,2.721,6.79c0.701,1.258,1.426,2.56,1.943,3.894   c2.701,6.958,0.007,14.829-3.03,22.312h1.014c3.048-7.553,5.676-15.487,2.893-22.653c-0.541-1.394-1.282-2.725-1.999-4.011   c-1.19-2.136-2.314-4.156-2.609-6.45c-0.533-4.16,1.735-7.784,4.137-11.621c2.013-3.216,4.094-6.54,4.464-10.285   c0.479-4.824-1.935-9.161-4.269-13.354c-1.096-1.969-2.23-4.007-3.046-6.063c-2.164-5.453-2.215-11.727-0.137-17.213   c0.907-2.398,2.226-4.699,3.502-6.925c1.896-3.308,3.857-6.73,4.53-10.566c1.168-6.643-1.664-12.982-4.403-19.112   c-1.165-2.609-2.372-5.306-3.247-7.983c-2.331-7.121-2.335-14.95-0.295-22.185h-0.977c-2.017,7.342-1.985,15.265,0.375,22.478   c0.892,2.725,2.107,5.445,3.282,8.075c2.805,6.276,5.453,12.204,4.336,18.563C223.549,69.546,221.717,72.745,219.775,76.132z"/>
	<path fill="#A1C3FC" d="M220.592,76.6c-1.275,2.225-2.595,4.527-3.502,6.925c-2.077,5.486-2.026,11.761,0.137,17.213   c0.816,2.056,1.95,4.093,3.046,6.063c2.335,4.193,4.749,8.53,4.269,13.354c-0.371,3.743-2.453,7.069-4.464,10.285   c-2.402,3.837-4.67,7.462-4.137,11.621c0.295,2.295,1.418,4.314,2.609,6.45c0.717,1.287,1.458,2.617,1.999,4.011   c2.783,7.166,0.155,15.1-2.893,22.653h3.695c3.036-7.483,5.731-15.354,3.03-22.312c-0.518-1.335-1.242-2.635-1.943-3.894   c-1.181-2.12-2.404-4.315-2.721-6.79c-0.576-4.494,1.888-8.433,4.272-12.241c1.955-3.123,3.977-6.354,4.327-9.877   c0.449-4.53-1.788-8.548-4.156-12.801c-1.111-1.996-2.259-4.06-3.099-6.174c-2.25-5.669-2.302-12.192-0.143-17.896   c0.933-2.468,2.272-4.802,3.565-7.059c1.942-3.387,3.775-6.586,4.42-10.26c1.118-6.36-1.531-12.288-4.336-18.563   c-1.175-2.631-2.39-5.351-3.282-8.075c-2.36-7.214-2.393-15.136-0.375-22.478h-3.732c-2.04,7.235-2.036,15.063,0.295,22.185   c0.876,2.679,2.081,5.376,3.247,7.983c2.739,6.129,5.571,12.468,4.403,19.112C224.449,69.871,222.488,73.292,220.592,76.6z"/>
	<path fill="#FFFFFF" d="M224.484,76.132c-1.293,2.258-2.632,4.592-3.565,7.059c-2.159,5.704-2.106,12.226,0.143,17.896   c0.839,2.114,1.987,4.178,3.099,6.174c2.369,4.254,4.606,8.271,4.156,12.801c-0.349,3.524-2.372,6.753-4.327,9.877   c-2.384,3.809-4.849,7.747-4.272,12.241c0.317,2.475,1.54,4.669,2.721,6.79c0.701,1.258,1.426,2.56,1.943,3.894   c2.701,6.958,0.007,14.829-3.03,22.312h1.014c3.048-7.553,5.676-15.487,2.893-22.653c-0.541-1.394-1.282-2.725-1.999-4.011   c-1.19-2.136-2.314-4.156-2.609-6.45c-0.533-4.16,1.735-7.784,4.137-11.621c2.013-3.216,4.094-6.54,4.464-10.285   c0.479-4.824-1.935-9.161-4.269-13.354c-1.096-1.969-2.23-4.007-3.046-6.063c-2.164-5.453-2.215-11.727-0.137-17.213   c0.907-2.398,2.226-4.699,3.502-6.925c1.896-3.308,3.857-6.73,4.53-10.566c1.168-6.643-1.664-12.982-4.403-19.112   c-1.165-2.609-2.372-5.306-3.247-7.983c-2.331-7.121-2.335-14.95-0.295-22.185h-0.977c-2.017,7.342-1.985,15.265,0.375,22.478   c0.892,2.725,2.107,5.445,3.282,8.075c2.805,6.276,5.453,12.204,4.336,18.563C228.259,69.546,226.426,72.745,224.484,76.132z"/>
	<path fill="#A1C3FC" d="M225.301,76.6c-1.275,2.225-2.595,4.527-3.502,6.925c-2.077,5.486-2.026,11.761,0.137,17.213   c0.816,2.056,1.95,4.093,3.046,6.063c2.335,4.193,4.749,8.53,4.269,13.354c-0.371,3.743-2.453,7.069-4.464,10.285   c-2.402,3.837-4.67,7.462-4.137,11.621c0.295,2.295,1.418,4.314,2.609,6.45c0.717,1.287,1.458,2.617,1.999,4.011   c2.783,7.166,0.155,15.1-2.893,22.653h3.695c3.036-7.483,5.731-15.354,3.03-22.312c-0.518-1.335-1.242-2.635-1.943-3.894   c-1.181-2.12-2.404-4.315-2.721-6.79c-0.576-4.494,1.888-8.433,4.272-12.241c0.703-1.122,1.411-2.258,2.049-3.416v-15.771   c-0.581-1.157-1.223-2.316-1.879-3.492c-1.111-1.996-2.259-4.06-3.099-6.174c-2.25-5.669-2.302-12.192-0.143-17.896   c0.933-2.468,2.272-4.802,3.565-7.059c0.536-0.934,1.06-1.855,1.556-2.775V50.654c-0.472-1.108-0.969-2.221-1.472-3.346   c-1.175-2.631-2.39-5.351-3.282-8.075c-2.36-7.214-2.393-15.136-0.375-22.478h-3.732c-2.04,7.235-2.036,15.063,0.295,22.185   c0.876,2.679,2.081,5.376,3.247,7.983c2.739,6.129,5.571,12.468,4.403,19.112C229.158,69.871,227.197,73.292,225.301,76.6z"/>
	<path fill="#FFFFFF" d="M227.148,148.969c0.701,1.258,1.426,2.56,1.943,3.894c2.683,6.911-0.103,14.868-3.118,22.312h1.103   c1.56-3.866,3.003-7.83,3.673-11.741v-8.26c-0.187-0.894-0.441-1.778-0.78-2.651c-0.541-1.394-1.282-2.725-1.999-4.011   c-1.19-2.136-2.314-4.156-2.609-6.45c-0.533-4.16,1.735-7.784,4.137-11.621c0.42-0.672,0.841-1.35,1.251-2.033v-1.883   c-0.639,1.159-1.347,2.294-2.049,3.416c-2.384,3.809-4.849,7.747-4.272,12.241C224.746,144.655,225.967,146.849,227.148,148.969z"/>
	<path fill="#A1C3FC" d="M230.75,175.176v-11.741c-0.671,3.912-2.113,7.875-3.673,11.741H230.75z"/>
</g>
<polygon fill="#1D72D8" points="231.906,117.156 226.615,111.602 232.165,106.307 237.456,111.861 "/>
<rect x="191.784" y="166.324" transform="matrix(0.9732 0.23 -0.23 0.9732 44.3711 -40.4229)" fill="#1D72D8" width="7.668" height="7.673"/>
<rect x="221.551" y="116.188" transform="matrix(-0.2057 0.9786 -0.9786 -0.2057 387.5283 -76.0356)" fill="#E94A47" width="6.143" height="6.139"/>

</g>
</g>

<!-- ITEM 2 -->
<g transform="translate(1090.0 564.0) scale(0.9432314410480349 0.9433333333333334) rotate(0.0 114.5 150.0)">
<g transform="translate(-0.0 -0.0)">

<g>
	<g>
		<path fill="#D62929" d="M3.49,300c-0.725,0-1.457-0.226-2.084-0.69c-1.546-1.151-1.865-3.336-0.712-4.88l31.3-41.94    c1.153-1.544,3.337-1.863,4.888-0.713c1.546,1.151,1.865,3.336,0.712,4.88L6.293,298.6C5.607,299.515,4.554,300,3.49,300z"/>
	</g>
	<g>
		
			<linearGradient id="SVGID_1_-i2" gradientUnits="userSpaceOnUse" x1="-1488.2854" y1="-1509.2585" x2="-1890.8448" y2="-1509.2585" gradientTransform="matrix(-0.2477 -0.1846 -0.1846 0.2477 -549.9206 236.0301)">
			<stop offset="0" style="stop-color:#E94A47"/>
			<stop offset="1" style="stop-color:#D62929"/>
		</linearGradient>
		<path fill="url(#SVGID_1_-i2)" d="M153.536,66.712c-12.649,17.755-26.951,37.961-41.458,58.724    C61.312,198.083,8.041,277.492,14.293,282.23c7.646,5.792,68.469-68.101,123.224-137.87    c15.636-19.922,30.773-39.505,44.042-56.802c14.124-18.415,26.125-34.236,34.337-45.11c6.494-8.601,5.162-20.525-2.968-26.572l0,0    c-8.194-6.096-20.121-3.874-26.479,4.935C178.476,31.853,166.933,47.907,153.536,66.712z"/>
		<polygon fill="#1D72D8" points="203.039,32.732 205.346,48.507 189.547,50.81 187.24,35.036   "/>
		<path fill="#23286B" d="M174.657,81.159l-4.785-32.708l-3.675,0.535c-3.977,5.553-8.213,11.484-12.66,17.725    c-3.854,5.41-7.864,11.052-11.986,16.863l0.346,2.361L174.657,81.159z"/>
		<path fill="#78A9EF" d="M138.069,109.433l3.666,25.061l3.952-0.577c6.209-7.952,12.299-15.79,18.179-23.394l-0.695-4.753    L138.069,109.433z"/>
		<polygon fill="#FFFFFF" points="119.627,136.663 121.375,148.614 109.405,150.359 107.657,138.409   "/>
	</g>
	<polygon fill="#428DFC" points="210.815,0 229,13.528 219.189,26.675 201.004,13.147  "/>
	<g>
		<path fill="#23286B" d="M165.489,130.959c-1.142,0-2.193-0.754-2.519-1.905c-2.906-10.267,1.397-22.338,11.508-32.292    c4.107-4.043,8.736-7.51,13.212-10.859c4.262-3.19,8.671-6.488,12.478-10.2c11.476-11.188,18.123-26.792,18.237-42.806    c0.013-1.834-0.091-3.705-0.919-4.947c-0.446-0.668-1.737-1.168-3.237-1.749c-1.999-0.775-4.484-1.739-6.933-3.768    c-0.524-0.435-1.018-0.832-1.485-1.207c-2.948-2.372-5.276-4.244-6.907-8.872c-0.48-1.363,0.237-2.857,1.602-3.336    c1.371-0.472,2.861,0.236,3.341,1.599c1.138,3.224,2.512,4.331,5.253,6.538c0.484,0.39,0.997,0.803,1.542,1.256    c1.792,1.486,3.668,2.212,5.484,2.915c2.13,0.827,4.334,1.679,5.699,3.723c1.611,2.415,1.817,5.217,1.8,7.884    c-0.122,17.4-7.346,34.353-19.817,46.51c-4.05,3.951-8.598,7.354-12.993,10.644c-4.337,3.246-8.822,6.601-12.679,10.398    c-8.729,8.594-12.521,18.742-10.143,27.147c0.394,1.391-0.415,2.836-1.808,3.227C165.962,130.928,165.725,130.959,165.489,130.959    z"/>
	</g>
</g>
<polygon fill="#FFFFFF" points="41.042,248.157 45.54,252.648 41.042,257.14 36.544,252.648 "/>

</g>
</g>

<!-- ITEM 3 -->
<g transform="translate(478.0 158.0) scale(1.9136363636363636 1.9085714285714286) rotate(320.73803875321966 109.99999999999999 175.0)">
<g transform="translate(-0.0 -0.0)">

<linearGradient id="SVGID_1_-i3" gradientUnits="userSpaceOnUse" x1="-472.5338" y1="772.5233" x2="-349.6127" y2="772.5233" gradientTransform="matrix(0.8612 0.5083 0.5083 -0.8612 102.0323 1003.1466)">
	<stop offset="0" style="stop-color:#92C4FE"/>
	<stop offset="1" style="stop-color:#5BABF2"/>
</linearGradient>
<path fill="url(#SVGID_1_-i3)" d="M95.307,205.795c14.729,8.693,25.193,21.497,30.353,35.318c20.508-13.6,41.559-36.241,58.482-64.914  c34.505-58.466,9.547-137.102,9.547-137.102s-80.903,16.157-115.408,74.624c-16.923,28.674-26.569,58.045-28.563,82.573  C64.311,194.13,80.578,197.102,95.307,205.795z"/>
<path fill="#EFEFEF" d="M159.06,129.144c3.903,2.303,7.07,5.374,9.427,8.907c0.907-10.802-4.274-21.683-14.235-27.562  c-13.863-8.181-31.733-3.576-39.916,10.287c-5.879,9.961-5.155,21.99,0.86,31.009c0.356-4.232,1.645-8.451,3.948-12.354  C127.326,125.568,145.198,120.963,159.06,129.144z"/>
<path fill="#FFFFFF" d="M164.539,150.405c2.303-3.903,3.593-8.122,3.948-12.354c-2.356-3.533-5.525-6.604-9.427-8.907  c-13.863-8.181-31.735-3.576-39.916,10.287c-2.303,3.903-3.593,8.122-3.948,12.354c2.356,3.533,5.525,6.604,9.427,8.907  C138.487,168.874,156.358,164.268,164.539,150.405z"/>
<path fill="#FF4945" d="M170.241,177.313l-48.468,59.685l19.214,42.241C167.273,241.909,176.212,208.098,170.241,177.313z"/>
<path fill="#FF4945" d="M86.869,128.108l-28.824,71.278l-46.267,3.596C31.754,161.929,57.034,137.76,86.869,128.108z"/>
<g>
	<path fill="#FF4945" d="M190.566,46.754c-0.269,0-0.54-0.069-0.788-0.215c-0.737-0.435-0.982-1.386-0.547-2.123l25.765-43.654   c0.437-0.737,1.39-0.981,2.124-0.548c0.737,0.435,0.982,1.386,0.547,2.123l-25.765,43.654   C191.611,46.482,191.095,46.754,190.566,46.754z"/>
</g>
<g>
	<path fill="#5BABF2" d="M81.623,328.212c-0.048,0-0.097-0.007-0.146-0.022c-0.274-0.081-0.431-0.367-0.349-0.641   c6.579-22.379,11.33-43.057,15.404-67.046c0.048-0.28,0.314-0.469,0.596-0.423c0.281,0.049,0.471,0.315,0.424,0.596   c-4.081,24.031-8.841,44.745-15.432,67.163C82.053,328.065,81.848,328.212,81.623,328.212z"/>
</g>
<g>
	<path fill="#5BABF2" d="M0.517,280.344c-0.131,0-0.263-0.05-0.364-0.15c-0.203-0.201-0.205-0.528-0.004-0.731   c16.444-16.608,32.278-30.787,51.34-45.97c0.223-0.181,0.549-0.142,0.727,0.082c0.178,0.223,0.141,0.548-0.083,0.726   c-19.028,15.159-34.834,29.312-51.249,45.89C0.783,280.292,0.65,280.344,0.517,280.344z"/>
</g>
<rect x="71.04" y="336.231" transform="matrix(-0.3479 -0.9375 0.9375 -0.3479 -216.9981 533.5798)" fill="#FF4945" width="12.05" height="12.05"/>
<rect x="4.291" y="329.717" transform="matrix(0.7429 -0.6694 0.6694 0.7429 -222.0938 93.2242)" fill="#1B236D" width="12.05" height="12.05"/>
<rect x="9.453" y="247.158" transform="matrix(-0.3479 -0.9375 0.9375 -0.3479 -217.2908 351.3933)" fill="#5BABF2" width="8.212" height="8.212"/>
<g>
	<path fill="#5BABF2" d="M20.482,323.681c-0.089,0-0.18-0.023-0.261-0.071c-0.246-0.146-0.328-0.462-0.183-0.708l36.748-62.267   c0.146-0.246,0.463-0.326,0.708-0.183c0.246,0.146,0.328,0.462,0.183,0.708l-36.748,62.267   C20.83,323.59,20.657,323.681,20.482,323.681z"/>
</g>
<g>
	<path fill="#5BABF2" d="M61.01,311.706c-0.061,0-0.122-0.01-0.181-0.033c-0.268-0.1-0.403-0.398-0.303-0.666l6.347-16.94   c0.1-0.267,0.399-0.405,0.666-0.302c0.268,0.1,0.403,0.398,0.303,0.666l-6.347,16.94C61.416,311.577,61.219,311.706,61.01,311.706z   "/>
</g>
<g>
	<path fill="#FF4945" d="M139.41,169.91c-6.107,0-12.128-1.648-17.413-4.768c-7.894-4.659-13.501-12.113-15.788-20.989   c-2.287-8.875-0.982-18.111,3.677-26.005c6.144-10.411,17.479-16.879,29.58-16.879c6.107,0,12.128,1.648,17.413,4.767   c16.296,9.617,21.728,30.698,12.112,46.993C162.845,163.443,151.511,169.91,139.41,169.91z M139.466,111.607   c-8.462,0-16.385,4.52-20.679,11.796c-3.255,5.516-4.167,11.97-2.569,18.173c1.599,6.202,5.517,11.411,11.033,14.667   c3.695,2.181,7.9,3.333,12.161,3.333c8.462,0,16.386-4.521,20.68-11.797c6.72-11.387,2.923-26.118-8.464-32.838   C147.931,112.759,143.726,111.607,139.466,111.607z"/>
</g>
<path fill="#5BABF2" d="M133.794,76.781c29.573,17.454,51.031,42.866,62.541,70.729c15.081-52.561-2.645-108.413-2.645-108.413  s-37.718,7.538-72.63,30.928C125.354,72.061,129.605,74.31,133.794,76.781z"/>
<linearGradient id="SVGID_2_-i3" gradientUnits="userSpaceOnUse" x1="-452.5461" y1="853.5646" x2="-369.6049" y2="853.5646" gradientTransform="matrix(0.8612 0.5083 0.5083 -0.8612 102.0323 1003.1466)">
	<stop offset="0" style="stop-color:#FF4945"/>
	<stop offset="1" style="stop-color:#F92424"/>
</linearGradient>
<path fill="url(#SVGID_2_-i3)" d="M204.07,103.103c0.888-36.806-8.663-66.916-8.663-66.916s-30.975,6.192-62.767,24.759L204.07,103.103  z"/>

</g>
</g>

<!-- ITEM 4 -->
<g transform="translate(1417.0 418.0) scale(0.29 0.29) rotate(12.669303120336789 50.0 50.0)">
<g transform="translate(-0.0 -0.0)">

<path fill="#E94A47" d="M98.663,98.531c-33.052,1.963-65.546,1.955-97.487,0c-1.46-34.57-1.676-67.372,0-97.487  c32.497-1.392,64.992-1.392,97.487,0C100.512,32.524,100.381,65.091,98.663,98.531z"/>

</g>
</g>

<!-- ITEM 5 -->
<g transform="translate(1491.0 380.0) scale(0.21 0.21) rotate(22.588218786266363 50.0 50.0)">
<g transform="translate(-0.0 -0.0)">

<path fill="#23286B" d="M98.663,98.531c-33.052,1.963-65.546,1.955-97.487,0c-1.46-34.57-1.676-67.372,0-97.487  c32.497-1.392,64.992-1.392,97.487,0C100.512,32.524,100.381,65.091,98.663,98.531z"/>

</g>
</g>

<!-- ITEM 6 -->
<g transform="translate(1400.0 762.0) scale(0.27 0.27) rotate(32.00668314075665 49.99999999999999 49.99999999999999)">
<g transform="translate(-0.0 -0.0)">

<path fill="#A1C3FC" d="M98.663,98.531c-33.052,1.963-65.546,1.955-97.487,0c-1.46-34.57-1.676-67.372,0-97.487  c32.497-1.392,64.992-1.392,97.487,0C100.512,32.524,100.381,65.091,98.663,98.531z"/>

</g>
</g>

<!-- ITEM 7 -->
<g transform="translate(200.0 557.0) scale(0.24 0.24) rotate(340.9948001192853 50.0 50.0)">
<g transform="translate(-0.0 -0.0)">

<path fill="#A1C3FC" d="M98.663,98.531c-33.052,1.963-65.546,1.955-97.487,0c-1.46-34.57-1.676-67.372,0-97.487  c32.497-1.392,64.992-1.392,97.487,0C100.512,32.524,100.381,65.091,98.663,98.531z"/>

</g>
</g>

<!-- ITEM 8 -->
<g transform="translate(811.0 286.0) scale(0.19 0.19) rotate(32.51808079299107 50.0 50.0)">
<g transform="translate(-0.0 -0.0)">

<path fill="#23286B" d="M98.663,98.531c-33.052,1.963-65.546,1.955-97.487,0c-1.46-34.57-1.676-67.372,0-97.487  c32.497-1.392,64.992-1.392,97.487,0C100.512,32.524,100.381,65.091,98.663,98.531z"/>

</g>
</g>

<!-- ITEM 9 -->
<g transform="translate(1455.0 695.0) scale(0.12 0.12) rotate(326.67779926717674 50.0 50.0)">
<g transform="translate(-0.0 -0.0)">

<path fill="#23286B" d="M98.663,98.531c-33.052,1.963-65.546,1.955-97.487,0c-1.46-34.57-1.676-67.372,0-97.487  c32.497-1.392,64.992-1.392,97.487,0C100.512,32.524,100.381,65.091,98.663,98.531z"/>

</g>
</g>

<!-- ITEM 10 -->
<g transform="translate(159.0 497.0) scale(0.13 0.13) rotate(332.00220805094267 49.99999999999999 49.99999999999999)">
<g transform="translate(-0.0 -0.0)">

<path fill="#23286B" d="M98.663,98.531c-33.052,1.963-65.546,1.955-97.487,0c-1.46-34.57-1.676-67.372,0-97.487  c32.497-1.392,64.992-1.392,97.487,0C100.512,32.524,100.381,65.091,98.663,98.531z"/>

</g>
</g>

<!-- ITEM 11 -->
<g transform="translate(653.0 794.0) scale(0.15 0.15) rotate(333.22203707920954 50.0 50.0)">
<g transform="translate(-0.0 -0.0)">

<path fill="#23286B" d="M98.663,98.531c-33.052,1.963-65.546,1.955-97.487,0c-1.46-34.57-1.676-67.372,0-97.487  c32.497-1.392,64.992-1.392,97.487,0C100.512,32.524,100.381,65.091,98.663,98.531z"/>

</g>
</g>

<!-- ITEM 12 -->
<g transform="translate(974.0 715.0) scale(0.21 0.21) rotate(14.57762872916513 50.0 50.0)">
<g transform="translate(-0.0 -0.0)">

<path fill="#23286B" d="M98.663,98.531c-33.052,1.963-65.546,1.955-97.487,0c-1.46-34.57-1.676-67.372,0-97.487  c32.497-1.392,64.992-1.392,97.487,0C100.512,32.524,100.381,65.091,98.663,98.531z"/>

</g>
</g>

<!-- ITEM 13 -->
<g transform="translate(242.0 376.0) scale(0.2 0.2) rotate(32.22595091271926 50.0 50.0)">
<g transform="translate(-0.0 -0.0)">

<path fill="#23286B" d="M98.663,98.531c-33.052,1.963-65.546,1.955-97.487,0c-1.46-34.57-1.676-67.372,0-97.487  c32.497-1.392,64.992-1.392,97.487,0C100.512,32.524,100.381,65.091,98.663,98.531z"/>

</g>
</g>

<!-- ITEM 14 -->
<g transform="translate(959.0 571.0) scale(0.8666666666666667 0.8663594470046083) rotate(16.521317118282376 59.99999999999999 108.5)">
<g transform="translate(-0.0 -0.0)">

<rect x="107.206" y="68.813" fill="#FF4945" width="6.765" height="36.501"/>
<linearGradient id="SVGID_1_-i14" gradientUnits="userSpaceOnUse" x1="0" y1="32.128" x2="6.7654" y2="32.128" gradientTransform="matrix(1 0 0 -1 0 224)">
	<stop offset="0" style="stop-color:#81AEF2"/>
	<stop offset="1" style="stop-color:#78A9EF"/>
</linearGradient>
<rect x="0" y="173.622" fill="url(#SVGID_1_-i14)" width="6.765" height="36.501"/>
<linearGradient id="SVGID_2_-i14" gradientUnits="userSpaceOnUse" x1="141.6858" y1="149.4296" x2="-70.3217" y2="47.8466" gradientTransform="matrix(1 0 0 -1 0 224)">
	<stop offset="0" style="stop-color:#23286B"/>
	<stop offset="1" style="stop-color:#151A4F"/>
</linearGradient>
<rect x="3.549" y="13.65" fill="url(#SVGID_2_-i14)" width="106.16" height="203.35"/>
<rect x="15.258" y="32.421" fill="#D6D7D8" width="82.742" height="26.592"/>
<g>
	<rect x="18.822" y="89.016" fill="#1D72D8" width="19.659" height="19.698"/>
	<rect x="46.799" y="89.016" fill="#1D72D8" width="19.659" height="19.698"/>
	<rect x="74.776" y="89.016" fill="#1D72D8" width="19.659" height="19.698"/>
	<rect x="18.822" y="118.184" fill="#1D72D8" width="19.659" height="19.698"/>
	<rect x="46.799" y="118.184" fill="#1D72D8" width="19.659" height="19.698"/>
	<rect x="74.776" y="118.184" fill="#1D72D8" width="19.659" height="19.698"/>
	<rect x="18.822" y="147.352" fill="#1D72D8" width="19.659" height="19.698"/>
	<rect x="46.799" y="147.352" fill="#1D72D8" width="19.659" height="19.698"/>
	<rect x="74.776" y="147.352" fill="#1D72D8" width="19.659" height="19.698"/>
</g>
<rect x="15.506" y="70.077" fill="#1D72D8" width="32.514" height="8.712"/>
<rect x="31.007" y="182.201" fill="#1D72D8" width="49.147" height="20.076"/>
<rect x="15.506" y="70.077" fill="#E94A47" width="21.549" height="8.712"/>
<g>
	<path fill="#74B4F7" d="M53.074,136.078v-3.129c1.938,0,3.515-1.58,3.515-3.523c0-1.942-1.577-3.522-3.515-3.522v-3.129   c3.661,0,6.637,2.984,6.637,6.65C59.712,133.093,56.734,136.078,53.074,136.078z"/>
</g>
<g>
	<path fill="#74B4F7" d="M86.075,103.606c-3.661,0-6.638-2.984-6.638-6.65c0-3.667,2.978-6.651,6.638-6.651v3.129   c-1.939,0-3.516,1.58-3.516,3.523c0,1.942,1.577,3.522,3.516,3.522V103.606z"/>
</g>
<g>
	<path fill="#74B4F7" d="M52.458,200.445v-3.129c2.845,0,5.159-2.319,5.159-5.17c0-2.849-2.315-5.168-5.159-5.168v-3.129   c4.566,0,8.282,3.722,8.282,8.297C60.74,196.723,57.025,200.445,52.458,200.445z"/>
</g>
<g>
	<path fill="#74B4F7" d="M52.61,161.779v-3.129c1.939,0,3.516-1.58,3.516-3.522c0-1.942-1.577-3.523-3.516-3.523v-3.129   c3.661,0,6.638,2.984,6.638,6.651S56.271,161.779,52.61,161.779z"/>
</g>
<g>
	<rect x="52.61" y="161.243" fill="#74B4F7" width="11.684" height="3.129"/>
</g>
<g>
	<rect x="52.975" y="120.525" fill="#74B4F7" width="11.684" height="3.129"/>
</g>
<g>
	<rect x="20.844" y="92.611" fill="#74B4F7" width="11.684" height="3.129"/>
</g>
<g>
	<polygon fill="#74B4F7" points="85.36,120.47 87.828,122.386 80.675,131.64 78.206,129.725  "/>
</g>
<g>
	<rect x="20.479" y="126.634" fill="#74B4F7" width="11.684" height="3.129"/>
</g>
<g>
	<rect x="26.275" y="99.042" fill="#74B4F7" width="3.123" height="8.048"/>
</g>
<g>
	<rect x="30.657" y="150.081" fill="#74B4F7" width="3.123" height="13.348"/>
</g>
<g>
	<polygon fill="#74B4F7" points="90.354,161.559 81.627,157.553 89.674,151.224 91.603,153.684 87.583,156.847 91.654,158.714  "/>
</g>
<g>
	<polygon fill="#74B4F7" points="62.97,103.756 54.243,99.751 62.29,93.42 64.218,95.881 60.198,99.043 64.27,100.911  "/>
</g>
<g>
	<polygon fill="#74B4F7" points="51.473,103.756 50.173,100.911 54.243,99.043 50.224,95.881 52.151,93.42 60.198,99.751  "/>
</g>
<rect x="21.373" y="46.827" fill="#EEEEEE" width="9.257" height="2.786"/>
<rect x="32.733" y="34.092" fill="#EEEEEE" width="2.78" height="9.275"/>
<rect x="32.733" y="47.232" fill="#EEEEEE" width="2.78" height="9.275"/>
<rect x="37.846" y="34.243" fill="#EEEEEE" width="9.257" height="2.786"/>
<rect x="40.855" y="47.232" fill="#EEEEEE" width="2.78" height="9.275"/>
<rect x="48.977" y="34.092" fill="#EEEEEE" width="2.78" height="9.275"/>
<rect x="48.977" y="53.489" fill="#EEEEEE" width="2.78" height="3.018"/>
<rect x="57.099" y="34.092" fill="#EEEEEE" width="2.78" height="9.275"/>
<polygon fill="#EEEEEE" points="59.521,47.949 61.486,49.918 54.941,56.477 52.975,54.507 "/>
<polygon fill="#EEEEEE" points="68.9,34.465 70.866,36.435 64.32,42.993 62.355,41.024 "/>
<rect x="65.221" y="47.232" fill="#EEEEEE" width="2.78" height="9.275"/>
<rect x="73.343" y="47.232" fill="#EEEEEE" width="2.78" height="9.275"/>
<rect x="81.464" y="34.092" fill="#EEEEEE" width="2.78" height="9.275"/>
<rect x="78.226" y="53.345" fill="#EEEEEE" width="9.257" height="2.786"/>
<rect x="89.587" y="34.092" fill="#EEEEEE" width="2.78" height="9.275"/>
<rect x="89.587" y="47.232" fill="#EEEEEE" width="2.78" height="9.275"/>
<polygon fill="#A1C3FC" points="23.905,26.345 32.149,30.016 28.485,38.275 20.242,34.604 "/>
<polygon fill="#FFFFFF" points="21.477,19.045 29.72,22.716 26.057,30.975 17.813,27.305 "/>
<polygon fill="#428DFC" points="71.106,0 74.205,4.072 70.141,7.177 67.042,3.105 "/>
<polygon fill="#428DFC" points="51.33,10.428 54.429,14.499 50.365,17.604 47.266,13.533 "/>
<polygon fill="#428DFC" points="116.901,27.117 120,31.188 115.936,34.294 112.837,30.222 "/>
<g>
	<path fill="#E94A47" d="M90.746,42.35c-0.124,0-0.247-0.044-0.347-0.132c-0.215-0.192-0.234-0.521-0.043-0.736   c6.428-7.225,14.639-12.749,23.746-15.973c0.272-0.096,0.568,0.045,0.665,0.318c0.096,0.271-0.047,0.569-0.317,0.665   c-8.942,3.166-17.005,8.589-23.317,15.683C91.032,42.292,90.889,42.35,90.746,42.35z"/>
</g>
<g>
	<path fill="#E94A47" d="M48.903,36.735c-0.234,0-0.448-0.16-0.505-0.398c-1.437-5.914-3.932-11.441-7.416-16.429   c-0.164-0.236-0.107-0.561,0.128-0.726c0.236-0.165,0.56-0.108,0.724,0.128c3.557,5.094,6.106,10.74,7.574,16.781   c0.068,0.279-0.103,0.562-0.383,0.63C48.985,36.73,48.943,36.735,48.903,36.735z"/>
</g>
<g>
	<path fill="#E94A47" d="M54.566,27.069c-0.027,0-0.055-0.002-0.083-0.006c-0.283-0.045-0.477-0.313-0.432-0.598   c1.49-9.332,5.427-18.153,11.385-25.511c0.181-0.224,0.508-0.259,0.732-0.076c0.223,0.181,0.258,0.51,0.076,0.733   C60.401,8.827,56.54,17.478,55.078,26.63C55.038,26.886,54.817,27.069,54.566,27.069z"/>
</g>
<path fill="none" stroke="#E94A47" stroke-miterlimit="10" d="M54.751,26.357"/>
<path id="texture_8_-i14" fill="#FFFFFF" d="M16.64,199.101c0.264-0.01,0.469-0.178,0.459-0.442l0,0c-0.01-0.265-0.178-0.47-0.441-0.46  l0,0c-0.264,0.01-0.469,0.178-0.459,0.442l0,0C16.209,198.906,16.375,199.112,16.64,199.101L16.64,199.101z M60.258,191.518  c0.167,0.205,0.431,0.195,0.636,0.027c0.205-0.167,0.195-0.432,0.027-0.637l0,0c-0.167-0.205-0.431-0.195-0.636-0.027  C59.972,191,60.091,191.314,60.258,191.518L60.258,191.518L60.258,191.518z M52.113,183.68c0.167,0.205,0.431,0.195,0.636,0.027  c0.205-0.168,0.195-0.432,0.027-0.637l0,0c-0.167-0.205-0.431-0.195-0.636-0.027l0,0C51.984,183.102,51.946,183.475,52.113,183.68  L52.113,183.68z M37.927,200.792c0.205-0.167,0.302-0.384,0.291-0.648c-0.167-0.205-0.383-0.302-0.646-0.292  c-0.205,0.167-0.302,0.383-0.243,0.54C37.399,200.814,37.615,200.911,37.927,200.792z M33.434,190.315  c0.205-0.167,0.302-0.384,0.291-0.648c-0.167-0.205-0.383-0.302-0.646-0.292c-0.205,0.167-0.302,0.383-0.243,0.54  C32.905,190.337,33.229,190.483,33.434,190.315L33.434,190.315z M67.972,170.054c0.215,0.097,0.529-0.021,0.626-0.237  c0.097-0.216-0.021-0.53-0.236-0.627l0,0c-0.215-0.097-0.529,0.021-0.626,0.237l0,0C67.639,169.643,67.756,169.957,67.972,170.054z   M57.431,165.812c0.215,0.097,0.529-0.021,0.626-0.237c0.097-0.216-0.021-0.53-0.236-0.627c-0.215-0.097-0.529,0.021-0.626,0.237  l0,0C57.097,165.401,57.216,165.714,57.431,165.812L57.431,165.812L57.431,165.812z M27.665,204.862  c0.156-0.059,0.41-0.335,0.243-0.54c-0.059-0.156-0.334-0.411-0.539-0.243c-0.156,0.059-0.41,0.335-0.243,0.54l0,0  C27.137,204.884,27.352,204.981,27.665,204.862L27.665,204.862z M24.476,195.234c0.156-0.059,0.41-0.335,0.243-0.54  c-0.059-0.156-0.226-0.362-0.539-0.243c-0.156,0.059-0.361,0.226-0.243,0.54l0,0C24.104,195.197,24.319,195.294,24.476,195.234  L24.476,195.234L24.476,195.234z M59.638,177.334c0.215,0.097,0.48,0.087,0.577-0.129c0.097-0.216,0.039-0.372-0.129-0.578l0,0  c-0.215-0.097-0.48-0.087-0.577,0.129l0,0C59.412,176.972,59.422,177.237,59.638,177.334L59.638,177.334z M50.671,172.763  c0.215,0.097,0.48,0.087,0.577-0.129s0.039-0.372-0.129-0.578l0,0c-0.215-0.097-0.48-0.087-0.577,0.129l0,0  C50.445,172.401,50.456,172.665,50.671,172.763L50.671,172.763z M42.242,190.917c0.167,0.205,0.431,0.195,0.636,0.027  c0.205-0.167,0.195-0.432,0.027-0.637c-0.167-0.205-0.431-0.195-0.636-0.027C42.064,190.446,42.075,190.711,42.242,190.917  L42.242,190.917z M35.622,211.966c0.167,0.205,0.431,0.195,0.636,0.027c0.205-0.167,0.195-0.432,0.027-0.637  c-0.167-0.205-0.431-0.195-0.636-0.027C35.445,211.496,35.455,211.761,35.622,211.966L35.622,211.966z M28.071,203.096  c0.167,0.205,0.431,0.195,0.636,0.027c0.205-0.168,0.195-0.432,0.027-0.637c-0.167-0.205-0.431-0.195-0.636-0.027  C27.893,202.626,27.904,202.891,28.071,203.096L28.071,203.096z M20.363,194.286c0.167,0.205,0.431,0.195,0.636,0.027  c0.205-0.167,0.195-0.432,0.027-0.637c-0.167-0.205-0.431-0.195-0.636-0.027C20.293,193.865,20.305,194.13,20.363,194.286z   M58.006,168.28c0.264-0.01,0.469-0.178,0.459-0.442c-0.01-0.265-0.178-0.47-0.441-0.46c-0.264,0.01-0.469,0.178-0.459,0.442  C57.467,168.037,57.741,168.29,58.006,168.28L58.006,168.28z M4.334,197.05c0.119,0.314,0.334,0.411,0.646,0.292 M45.881,190.611  c0.215,0.097,0.529-0.021,0.626-0.237c0.097-0.216-0.021-0.53-0.236-0.627s-0.529,0.021-0.626,0.237l0,0  C45.547,190.2,45.666,190.514,45.881,190.611L45.881,190.611L45.881,190.611z M44.182,198.42c0.215,0.097,0.529-0.021,0.626-0.237  c0.097-0.216-0.021-0.53-0.236-0.627c-0.215-0.097-0.48-0.087-0.626,0.237C43.848,198.009,43.967,198.323,44.182,198.42  L44.182,198.42z M34.008,192.784c0.215,0.097,0.529-0.021,0.626-0.237c0.097-0.216,0.086-0.481-0.236-0.627  c-0.215-0.097-0.529,0.021-0.734,0.189C33.675,192.374,33.793,192.686,34.008,192.784L34.008,192.784z M16.448,203.563  c0.167,0.205,0.431,0.195,0.636,0.027l0,0c0.205-0.167,0.195-0.432,0.076-0.746c-0.167-0.205-0.431-0.195-0.744-0.076  C16.27,203.092,16.281,203.357,16.448,203.563L16.448,203.563z M16.365,198.848c0.215,0.097,0.372,0.039,0.529-0.021  c0.097-0.216,0.039-0.372-0.021-0.53c-0.215-0.097-0.372-0.039-0.529,0.021l0,0C16.246,198.534,16.258,198.799,16.365,198.848  L16.365,198.848L16.365,198.848z"/>

</g>
</g>

<!-- ITEM 15 -->
<g transform="translate(334.0 525.0) scale(0.8268548827059465 0.8219154625700269) rotate(336.7102611708789 117.312 175.2005)">
<g transform="translate(-0.0 -0.0)">

<rect x="124.624" y="244.928" fill="#23286B" width="12" height="51.449"/>
<rect x="96.67" y="136.312" transform="matrix(-0.9397 -0.342 0.342 -0.9397 150.6328 356.0455)" fill="#E94A47" width="20.074" height="56.861"/>
<rect x="142.543" y="2.666" transform="matrix(-0.9397 -0.342 0.342 -0.9397 290.6953 113.45)" fill="#428DFC" width="25.614" height="56.861"/>
<rect x="105.736" y="14.362" transform="matrix(-0.9397 -0.342 0.342 -0.9397 227.0175 223.743)" fill="#23286B" width="54.997" height="154.991"/>
<path fill="#23286B" d="M96.828,324.963h54.997v-37.492c0-15.187-12.311-27.498-27.498-27.498h0  c-15.187,0-27.498,12.311-27.498,27.498V324.963z"/>
<g>
	<path fill="#23286B" d="M127.624,293.377v-20c47.972,0,87-39.028,87-87s-39.028-87-87-87v-20c59,0,107,48,107,107   S186.624,293.377,127.624,293.377z"/>
</g>
<circle fill="#428DFC" cx="158.624" cy="91.377" r="20"/>
<circle fill="#428DFC" cx="124.326" cy="285.377" r="20"/>
<rect x="34.624" y="239.377" fill="#428DFC" width="102" height="12"/>
<path fill="#428DFC" d="M0,349.401h188.559v-7.552c0-9.723-7.882-17.605-17.605-17.605H17.605C7.882,324.244,0,332.126,0,341.848  V349.401z"/>

</g>
</g>

<!-- ITEM 16 -->
<g transform="translate(384.0 311.0) scale(0.6636673559492539 0.6623579944602785) rotate(351.1974255578803 71.572 99.644)">
<g transform="translate(-0.0 -0.0)">

<polygon fill="#C4D9FD" points="95.332,111.938 95.332,0 47.468,0 47.468,111.559 0,199.288 68.46,199.288 74.684,199.288   143.144,199.288 "/>
<rect x="56.343" y="0" fill="#B7D1FD" width="30.459" height="100.949"/>
<polygon fill="#428DFC" points="86.666,113.682 86.666,86.155 56.207,86.155 56.207,113.444 15.918,191.456 59.003,191.456   85.881,191.456 128.967,191.456 "/>
<rect x="62.33" y="172.598" fill="#FFFFFF" width="5.806" height="5.806"/>
<rect x="89.598" y="178.4" fill="#FFFFFF" width="5.806" height="5.806"/>
<rect x="63.95" y="159.714" transform="matrix(0.925 -0.38 0.38 0.925 -56.4573 37.1242)" fill="#FFFFFF" width="3.726" height="3.726"/>
<rect x="58.038" y="104.163" transform="matrix(0.925 -0.38 0.38 0.925 -35.7933 30.7116)" fill="#FFFFFF" width="3.726" height="3.726"/>
<rect x="75.685" y="157.525" transform="matrix(0.7596 0.6503 -0.6503 0.7596 123.728 -12.7822)" fill="#FFFFFF" width="6.944" height="6.944"/>

</g>
</g>

<!-- ITEM 17 -->
<g transform="translate(319.0 421.0) scale(1.14072055515067 1.1341909977640234) rotate(336.91114374073754 15.779500000000002 46.2885)">
<g transform="translate(-0.0 -0.0)">

<path fill="#C4D9FD" d="M0.355,0L0,76.971c-0.014,8.617,5.344,15.588,15.344,15.601v0.004c9,0.014,15.846-6.941,15.86-15.558  L31.559,0H0.355z"/>
<linearGradient id="SVGID_1_-i17" gradientUnits="userSpaceOnUse" x1="5467.4282" y1="51.8567" x2="5477.6084" y2="71.6361" gradientTransform="matrix(1 0 0 1 -5451.8599 0)">
	<stop offset="0" style="stop-color:#E94A47"/>
	<stop offset="1" style="stop-color:#D62929"/>
</linearGradient>
<path fill="url(#SVGID_1_-i17)" d="M4.79,26L4.472,75.786c-0.01,6.146,4.872,10.681,10.872,10.69v-0.012  c7,0.01,11.373-4.491,11.383-10.637L27.045,26H4.79z"/>
<rect x="7.999" y="46.913" fill="#FFFFFF" width="5.806" height="5.806"/>
<rect x="15.996" y="23.42" fill="#FFFFFF" width="5.806" height="5.806"/>
<rect x="15.027" y="72.332" transform="matrix(0.925 -0.38 0.38 0.925 -27.2416 12.4551)" fill="#FFFFFF" width="5.806" height="5.806"/>
<rect x="11.885" y="58.044" transform="matrix(0.7596 0.6503 -0.6503 0.7596 43.6971 4.7981)" fill="#FFFFFF" width="6.944" height="6.944"/>

</g>
</g>

              </svg>