<svg xmlns="http://www.w3.org/2000/svg" xmlns:xlink="http://www.w3.org/1999/xlink" width="500" zoomAndPan="magnify" viewBox="0 0 375 374.999991" height="500" preserveAspectRatio="xMidYMid meet" version="1.0"><path fill="#e6e6e6" d="M 375 187.5 C 375 235.964844 356.625 280.125 326.445312 313.378906 C 323.15625 317.019531 319.726562 320.519531 316.15625 323.84375 C 301.367188 337.808594 284.328125 349.378906 265.617188 357.945312 C 263.945312 358.71875 262.253906 359.457031 260.566406 360.160156 C 238.339844 369.585938 213.945312 374.839844 188.324219 374.949219 L 187.550781 374.949219 C 168.03125 374.949219 149.214844 371.960938 131.523438 366.402344 C 129.585938 365.804688 127.671875 365.171875 125.753906 364.503906 C 100.308594 355.621094 77.375 341.429688 58.277344 323.226562 C 54.53125 319.675781 50.941406 315.964844 47.53125 312.113281 C 18.023438 279 0.101562 235.332031 0.101562 187.5 C 0.101562 83.96875 84.023438 0.0507812 187.550781 0.0507812 C 291.082031 0.0507812 375 83.96875 375 187.5 " fill-opacity="1" fill-rule="nonzero"/><path fill="#7d2d1a" d="M 290.558594 210.460938 C 290.015625 208.558594 289.503906 206.640625 289.050781 204.695312 C 285.773438 190.59375 292.34375 172.6875 286.1875 159.796875 C 283.972656 155.160156 280.03125 151.703125 275.710938 149.351562 C 269.445312 145.9375 262.394531 145.191406 256.507812 140.910156 C 250.09375 136.25 246.328125 128.914062 240.480469 123.671875 C 235.59375 119.289062 229.871094 117.125 223.558594 116.539062 C 211.433594 115.410156 198.855469 120.445312 187.816406 127.058594 C 183.40625 127.207031 179.148438 126.382812 174.652344 125.777344 C 164.976562 124.472656 154.402344 123.460938 145.089844 127.417969 C 136.859375 130.914062 128.960938 138.375 122.738281 144.96875 C 118.113281 149.871094 111.023438 157.273438 109.878906 164.84375 C 106.753906 164.65625 103.667969 165.195312 100.503906 167.175781 C 94.6875 170.820312 89.488281 177.726562 86.871094 184.316406 C 83.273438 193.367188 83.882812 203.136719 84.070312 212.726562 C 84.277344 223.367188 80.394531 233.328125 80.546875 243.878906 C 80.675781 252.710938 84.449219 259.902344 88.574219 267.234375 C 93.765625 276.457031 94.023438 286.285156 95.886719 296.59375 C 97.492188 305.488281 101.070312 311.566406 105.769531 318.875 C 110.507812 326.242188 112.859375 335.007812 119.855469 340.382812 C 122.15625 342.152344 125.167969 338.851562 123.777344 336.34375 C 123.765625 336.320312 123.757812 336.300781 123.742188 336.277344 C 129.09375 334.226562 132.820312 329.300781 138.515625 327.941406 C 142.277344 327.042969 145.777344 327.269531 149.472656 325.816406 C 152.65625 324.5625 155.691406 322.695312 158.730469 321.089844 C 167.238281 316.585938 174.691406 313.949219 184.070312 312.527344 C 191.707031 311.363281 199.738281 308.574219 206.765625 305.160156 C 209.726562 303.722656 212.476562 301.632812 215.503906 300.359375 C 221.503906 297.832031 226.214844 299.421875 231.660156 302.335938 C 237.753906 305.601562 243.296875 310.269531 249.480469 313.277344 C 256.96875 316.914062 262.527344 311.667969 266.40625 305.160156 C 264.128906 311.351562 262.3125 317.773438 264.667969 323.074219 C 264.902344 323.605469 265.265625 323.914062 265.664062 324.097656 C 262.976562 332.210938 258.867188 339.386719 251.769531 343.921875 C 249.078125 345.644531 250.160156 349.886719 253.191406 350.125 C 268.3125 351.324219 276.40625 318.472656 277.984375 306.730469 C 279.164062 297.949219 280.109375 289.746094 282.859375 281.316406 C 285.980469 271.761719 290.054688 262.65625 293.332031 253.179688 C 298.566406 238.039062 294.761719 225.191406 290.558594 210.460938 " fill-opacity="1" fill-rule="nonzero"/><path fill="#f77d68" d="M 270.679688 288.652344 C 270.523438 295.707031 270.136719 302.742188 269.519531 309.617188 C 268.972656 315.894531 268.253906 322.035156 267.375 327.886719 C 266.636719 332.8125 265.527344 338.597656 264.3125 344.277344 C 263.082031 350.015625 261.746094 355.621094 260.566406 360.160156 C 238.339844 369.585938 213.945312 374.839844 188.324219 374.949219 L 187.550781 374.949219 C 168.03125 374.949219 149.214844 371.960938 131.523438 366.402344 C 127.757812 358.769531 123.503906 349.539062 119.898438 340.425781 L 119.898438 340.410156 C 117.960938 335.59375 116.238281 330.808594 114.832031 326.34375 C 114.21875 324.351562 113.671875 322.4375 113.195312 320.589844 C 109.820312 307.332031 107.359375 293.769531 106.023438 280.144531 C 105.882812 278.753906 105.757812 277.382812 105.652344 275.992188 C 105.582031 275.203125 105.511719 274.410156 105.476562 273.621094 C 105.371094 272.421875 105.285156 271.226562 105.230469 270.03125 C 105.179688 269.1875 105.125 268.34375 105.089844 267.5 C 105.089844 267.480469 105.089844 267.480469 105.089844 267.480469 C 104.984375 265.246094 104.898438 263.03125 104.859375 260.796875 C 104.703125 253.816406 104.878906 246.835938 105.371094 239.890625 C 105.707031 234.929688 105.582031 228.230469 106.339844 222.320312 C 106.460938 221.476562 106.585938 220.667969 106.742188 219.859375 C 107.078125 218.046875 107.515625 216.375 108.132812 214.898438 C 108.605469 213.738281 109.132812 212.558594 109.664062 211.417969 C 109.664062 211.382812 109.679688 211.363281 109.699219 211.328125 C 111.4375 207.511719 113.410156 203.800781 115.535156 200.179688 C 118.929688 196.734375 122.625 193.601562 126.472656 190.824219 C 126.738281 190.628906 126.984375 190.453125 127.230469 190.277344 C 128.621094 189.292969 130.027344 188.363281 131.433594 187.464844 C 131.558594 187.375 131.664062 187.304688 131.785156 187.238281 C 134.476562 185.566406 137.238281 184.105469 140.085938 182.855469 C 141.40625 182.257812 142.742188 181.714844 144.09375 181.222656 C 152.539062 178.074219 161.472656 176.492188 170.421875 175.769531 C 179.882812 175.011719 189.855469 174.574219 199.597656 175.242188 C 202.902344 175.472656 206.191406 175.824219 209.410156 176.351562 C 211.167969 176.613281 212.890625 176.929688 214.597656 177.300781 C 218.203125 178.089844 221.722656 179.183594 225.132812 180.535156 C 225.132812 180.535156 225.132812 180.554688 225.148438 180.535156 C 228.71875 181.960938 232.183594 183.648438 235.5625 185.546875 C 235.578125 185.53125 235.578125 185.546875 235.578125 185.546875 C 239.695312 187.816406 243.6875 190.382812 247.570312 193.074219 C 262.394531 203.34375 265.421875 224.484375 267.902344 242.050781 C 268.058594 243.335938 268.234375 244.621094 268.429688 245.886719 C 268.550781 246.730469 268.65625 247.574219 268.761719 248.417969 C 268.78125 248.453125 268.78125 248.507812 268.78125 248.539062 C 269.253906 252.144531 269.640625 255.855469 269.925781 259.621094 C 270.679688 269.027344 270.90625 278.859375 270.679688 288.652344 " fill-opacity="1" fill-rule="nonzero"/><path fill="#7d2d1a" d="M 141.996094 242.75 C 132.03125 244.921875 118.140625 249.441406 116.554688 258.136719 C 116.484375 258.53125 116.441406 258.953125 116.597656 259.324219 C 117.0625 260.4375 118.679688 260.207031 119.824219 259.835938 C 132.148438 255.789062 145.59375 257.359375 158.339844 254.957031 C 160.519531 254.546875 162.738281 253.992188 164.535156 252.695312 C 166.332031 251.394531 167.628906 249.191406 167.277344 247.003906 C 166.816406 244.179688 163.917969 242.425781 161.152344 241.6875 C 156.964844 240.570312 152.53125 240.878906 148.253906 241.566406 C 146.539062 241.84375 144.382812 242.230469 141.996094 242.75 " fill-opacity="1" fill-rule="nonzero"/><path fill="#7d2d1a" d="M 236.070312 237.175781 C 246.230469 238.078125 260.578125 240.820312 263.242188 249.246094 C 263.363281 249.632812 263.460938 250.046875 263.351562 250.433594 C 263.03125 251.59375 261.394531 251.570312 260.214844 251.34375 C 247.476562 248.878906 234.335938 252.121094 221.390625 251.339844 C 219.175781 251.207031 216.90625 250.933594 214.960938 249.871094 C 213.011719 248.808594 211.449219 246.789062 211.527344 244.570312 C 211.625 241.710938 214.285156 239.609375 216.933594 238.527344 C 220.949219 236.894531 225.386719 236.644531 229.714844 236.789062 C 231.449219 236.847656 233.640625 236.960938 236.070312 237.175781 " fill-opacity="1" fill-rule="nonzero"/><path fill="#db553d" d="M 206.652344 310.429688 C 205.996094 306.449219 203.933594 302.527344 202.414062 298.800781 C 199.808594 292.398438 197.644531 285.984375 195.40625 279.460938 C 195.394531 279.472656 195.378906 279.480469 195.367188 279.488281 C 194.910156 277.691406 191.828125 277.789062 191.960938 279.851562 C 192.894531 294.042969 206.207031 307.46875 198.984375 321.167969 C 198.125 322.804688 199.902344 325.304688 201.726562 324.03125 C 205.757812 321.222656 207.421875 315.136719 206.652344 310.429688 " fill-opacity="1" fill-rule="nonzero"/><path fill="#db553d" d="M 192.933594 314.628906 C 191.34375 313.53125 187.859375 313.132812 186.222656 314.335938 C 185.285156 315.027344 185.261719 316.117188 186.167969 316.847656 C 186.960938 317.484375 188.128906 317.566406 189.105469 317.664062 C 190.050781 317.761719 190.96875 318.003906 191.921875 318.074219 C 193.867188 318.214844 194.355469 315.613281 192.933594 314.628906 " fill-opacity="1" fill-rule="nonzero"/><path fill="#c93d24" d="M 198.695312 345.984375 C 195.976562 346.761719 195.207031 349.660156 195.050781 352.136719 C 194.933594 353.992188 194.871094 356.011719 195.484375 357.765625 C 195.863281 359.972656 196.882812 362.085938 199.1875 362.144531 C 203.007812 362.238281 203.710938 356.761719 203.808594 353.984375 C 203.910156 350.980469 203.292969 344.667969 198.695312 345.984375 " fill-opacity="1" fill-rule="nonzero"/><path fill="#f77d68" d="M 116.925781 300.859375 C 116.539062 298.765625 116.238281 296.816406 116.027344 295.144531 C 115.097656 287.566406 114.324219 279.527344 112.511719 271.929688 C 112.300781 271.015625 112.070312 270.121094 111.824219 269.222656 C 112.105469 269.132812 112.371094 269.011719 112.582031 268.816406 C 112.96875 268.484375 113.179688 267.992188 113.003906 267.375 C 111.648438 262.433594 108.519531 260.640625 104.859375 260.796875 C 103.980469 260.832031 103.085938 260.972656 102.171875 261.222656 C 97.738281 262.398438 92.992188 265.792969 89.773438 269.609375 C 88.59375 271.015625 87.609375 272.492188 86.941406 273.917969 C 79.519531 289.726562 90.933594 311.570312 102.328125 319.871094 C 102.910156 320.292969 105.246094 321.523438 108.167969 323 C 110.242188 324.054688 112.601562 325.234375 114.832031 326.34375 C 119.492188 328.644531 123.660156 330.667969 123.660156 330.667969 C 123.660156 330.667969 119.105469 313.132812 116.925781 300.859375 " fill-opacity="1" fill-rule="nonzero"/><path fill="#db553d" d="M 104.390625 309.90625 C 103.496094 307.367188 95.234375 296.261719 102.714844 295.59375 C 103.851562 295.492188 104.828125 294.585938 104.503906 293.351562 C 102.695312 286.464844 99.691406 280 97.882812 273.09375 C 97.503906 271.636719 95.214844 271.839844 95.210938 273.398438 C 95.199219 280.078125 98.515625 286.167969 100.480469 292.46875 C 97.933594 293.320312 96.308594 295.242188 95.875 298.40625 C 95.183594 303.453125 98.9375 307.097656 101.269531 311.140625 C 102.191406 312.738281 105.054688 311.777344 104.390625 309.90625 " fill-opacity="1" fill-rule="nonzero"/><path fill="#f77d68" d="M 290.605469 260.621094 L 290.605469 260.605469 C 290.324219 259.851562 289.988281 259.128906 289.621094 258.40625 C 286.964844 253.359375 275.179688 243.703125 268.78125 248.539062 C 267.496094 249.507812 266.425781 251.054688 265.683594 253.359375 C 265.371094 254.308594 265.984375 255.011719 266.773438 255.257812 C 266.316406 256.664062 265.914062 258.070312 265.542969 259.515625 C 264.808594 262.242188 264.207031 265.019531 263.699219 267.816406 C 262.835938 272.226562 262.167969 276.679688 261.464844 280.988281 C 260.535156 286.597656 258.894531 295.496094 257.453125 303.128906 C 257.035156 305.289062 256.648438 307.367188 256.292969 309.230469 C 255.90625 311.25 255.554688 313.03125 255.292969 314.417969 C 254.90625 316.386719 254.675781 317.566406 254.675781 317.566406 C 254.675781 317.566406 259.09375 315.457031 264.121094 312.710938 C 265.894531 311.746094 267.757812 310.691406 269.519531 309.617188 C 271.453125 308.476562 273.28125 307.292969 274.777344 306.1875 C 276.027344 305.273438 277.273438 304.164062 278.488281 302.898438 C 287.914062 293.210938 295.949219 274.304688 290.605469 260.621094 " fill-opacity="1" fill-rule="nonzero"/><path fill="#db553d" d="M 277.128906 276.210938 C 277.316406 271.71875 277.9375 267.429688 278.695312 262.945312 C 279.160156 260.1875 279.386719 258.863281 277.730469 256.554688 C 277.320312 255.984375 276.191406 255.863281 276.023438 256.738281 C 274.65625 263.894531 273.441406 270.742188 273.402344 278.054688 C 273.398438 279.296875 274.503906 280.074219 275.675781 279.863281 C 282.546875 278.601562 276.347656 294.710938 275.796875 296.167969 C 275.164062 297.855469 277.863281 299.082031 278.703125 297.464844 C 281.175781 292.695312 285.707031 276.980469 277.128906 276.210938 " fill-opacity="1" fill-rule="nonzero"/><path fill="#7d2d1a" d="M 259.316406 203.917969 C 251.148438 191.257812 238.15625 181.050781 225.226562 174.6875 C 209.140625 166.769531 190.753906 166.972656 173.460938 168.988281 C 165.085938 169.96875 156.515625 171.246094 148.402344 173.757812 C 143.59375 175.246094 136.886719 176.277344 132.597656 179.449219 C 132.175781 179.1875 131.703125 179.171875 131.277344 179.324219 C 122.546875 176.003906 113.515625 202.085938 111.464844 206.921875 C 107.773438 215.632812 104.949219 224.792969 103.195312 234.171875 C 101.570312 242.863281 99.46875 252.8125 102.207031 261.351562 C 102.359375 261.824219 102.632812 262.140625 102.945312 262.347656 C 104.339844 267.179688 107.539062 272.832031 112.054688 272.039062 C 115.035156 271.519531 116.15625 268.75 116.671875 265.871094 C 117.363281 262.039062 116.183594 258.367188 117.386719 254.46875 C 118.335938 251.394531 120.480469 249.175781 121.652344 246.265625 C 124.070312 240.257812 122.136719 233.761719 124.179688 227.59375 C 126.671875 220.066406 131.851562 213.71875 135.621094 206.925781 C 137.847656 202.910156 139.160156 199.367188 139.527344 196.046875 C 143.734375 199.097656 150.109375 199.636719 154.765625 199.792969 C 160.601562 199.988281 166.3125 198.761719 172.050781 197.734375 C 176.964844 196.855469 181.992188 195.464844 186.898438 197.035156 C 190.96875 198.339844 194.847656 200.910156 198.699219 202.785156 C 204.539062 205.625 210.324219 208.460938 216.816406 208.648438 C 227.011719 208.941406 234.574219 207.566406 244.070312 213.003906 C 252.296875 217.714844 262.628906 220.175781 262.894531 232.148438 C 263.03125 238.242188 263.03125 244.066406 267.363281 248.5625 C 268.410156 249.652344 270.113281 246.996094 270.496094 245.320312 C 273.695312 231.335938 266.621094 215.242188 259.316406 203.917969 " fill-opacity="1" fill-rule="nonzero"/><path fill="#2e1a15" d="M 152.8125 283.34375 C 151.558594 281.269531 149.492188 280.136719 146.976562 281.683594 C 143.03125 284.101562 144.867188 294.101562 150.035156 293.738281 C 154.699219 293.40625 154.984375 286.945312 152.8125 283.34375 " fill-opacity="1" fill-rule="nonzero"/><path fill="#2e1a15" d="M 236.824219 277.109375 C 235.828125 274.898438 233.910156 273.53125 231.226562 274.761719 C 227.019531 276.691406 227.648438 286.839844 232.820312 287.09375 C 237.492188 287.324219 238.546875 280.949219 236.824219 277.109375 " fill-opacity="1" fill-rule="nonzero"/><path fill="#2e1a15" d="M 264.507812 293.632812 C 263.046875 297.835938 260.566406 300.929688 257.453125 303.128906 C 252.828125 306.382812 246.78125 307.703125 240.449219 307.859375 C 236.84375 307.945312 233.152344 307.667969 229.582031 307.136719 C 224.078125 306.328125 219.769531 303.691406 216.445312 300.015625 C 212.523438 295.707031 209.972656 289.9375 208.460938 284.046875 C 208.003906 282.269531 206.613281 278.382812 207.421875 276.589844 C 208.988281 273.390625 214.421875 271.507812 217.484375 270.558594 C 226.699219 267.65625 238.636719 266.652344 248.292969 266.511719 C 252.847656 266.441406 259.671875 266.847656 263.699219 267.816406 C 265.507812 268.257812 266.757812 268.78125 266.988281 269.453125 C 267.304688 270.433594 266.265625 288.566406 264.507812 293.632812 Z M 176.683594 286.824219 C 175.171875 297.992188 169.613281 308.210938 157.917969 311.339844 C 144.164062 315.035156 128.988281 314.875 122.519531 301.546875 C 120.179688 296.726562 116.273438 279.226562 116.484375 278.226562 C 116.960938 276.011719 125.964844 274.304688 133.351562 273.371094 C 142.917969 272.175781 156.335938 271.632812 165.832031 273.441406 C 168.980469 274.039062 174.429688 275.414062 176.347656 278.417969 C 177.386719 280.109375 176.929688 285.03125 176.683594 286.824219 Z M 281.230469 260.445312 C 281.125 260.359375 280.351562 260.238281 279.03125 260.109375 C 278.101562 260.023438 276.871094 259.9375 275.429688 259.867188 C 273.847656 259.777344 272 259.6875 269.925781 259.621094 C 268.550781 259.585938 267.09375 259.550781 265.542969 259.515625 C 257.523438 259.390625 247.449219 259.53125 237.828125 260.339844 C 229.457031 261.027344 218.855469 261.730469 210.921875 264.527344 C 198.507812 268.90625 192.667969 270.433594 177.71875 267.144531 C 166.921875 264.757812 155.296875 265.441406 144.273438 265.8125 C 134.371094 266.144531 124.082031 267.234375 116.027344 268.324219 L 116.011719 268.324219 C 114.816406 268.5 113.671875 268.660156 112.582031 268.816406 C 110.367188 269.152344 108.378906 269.46875 106.726562 269.765625 C 106.199219 269.855469 105.6875 269.941406 105.230469 270.03125 C 102.769531 270.488281 101.292969 270.855469 101.167969 270.996094 C 100.09375 272.195312 100.660156 279.457031 101.976562 279.949219 C 102.574219 280.179688 104.300781 280.195312 106.023438 280.144531 C 108.148438 280.070312 110.261719 279.914062 110.261719 279.914062 C 110.261719 279.914062 112.984375 291.554688 116.925781 300.859375 C 118.648438 304.972656 120.636719 308.632812 122.710938 310.617188 C 130.222656 317.777344 142.425781 318.09375 152.148438 317.214844 C 173.886719 315.226562 184.738281 296.09375 186.214844 276.082031 C 186.214844 276.082031 197.523438 275.515625 197.699219 275.5 C 199.71875 285.824219 204.167969 295.742188 211.082031 302.722656 C 217.339844 309.070312 225.640625 313.03125 236 312.746094 C 239.324219 312.660156 243.035156 312.414062 246.726562 311.816406 C 250 311.289062 253.285156 310.460938 256.292969 309.230469 C 259.847656 307.769531 263.046875 305.710938 265.421875 302.863281 C 267.757812 300.03125 269.464844 294.421875 270.679688 288.652344 C 272.5625 279.703125 273.25 270.382812 273.25 270.382812 C 273.25 270.382812 273.472656 270.363281 273.847656 270.363281 C 274.65625 270.3125 276.164062 270.222656 277.644531 270.085938 C 279.3125 269.925781 280.933594 269.714844 281.476562 269.433594 C 282.726562 268.800781 282.445312 261.503906 281.230469 260.445312 " fill-opacity="1" fill-rule="nonzero"/><path fill="#ffffff" d="M 277.851562 263.554688 C 276.832031 263.210938 275.753906 263.363281 274.699219 263.429688 C 273.636719 263.496094 272.621094 263.601562 271.59375 263.886719 C 270.53125 264.179688 270.46875 265.734375 271.550781 266.058594 C 272.582031 266.375 273.558594 266.4375 274.632812 266.414062 C 275.675781 266.390625 276.792969 266.492188 277.796875 266.1875 C 279.082031 265.792969 279.160156 263.984375 277.851562 263.554688 " fill-opacity="1" fill-rule="nonzero"/><path fill="#ffffff" d="M 105.632812 273.503906 C 106.601562 273.035156 107.691406 273.050781 108.746094 272.976562 C 109.808594 272.902344 110.824219 272.878906 111.878906 273.027344 C 112.972656 273.179688 113.238281 274.714844 112.207031 275.179688 C 111.226562 275.621094 110.265625 275.808594 109.195312 275.925781 C 108.160156 276.035156 107.066406 276.285156 106.03125 276.113281 C 104.703125 275.886719 104.394531 274.105469 105.632812 273.503906 " fill-opacity="1" fill-rule="nonzero"/><path fill="#6e200e" d="M 167.972656 133.230469 C 160.851562 131.566406 154.265625 134.507812 147.5 136.792969 C 141.289062 138.886719 135.214844 141.195312 129.847656 145.050781 C 121.472656 151.0625 112.15625 159.960938 111.597656 170.699219 C 111.1875 169.238281 111.09375 167.5625 109.925781 166.15625 C 109.007812 165.050781 107.4375 165.75 106.984375 166.867188 C 104.71875 172.441406 108.945312 177.46875 114.070312 178.597656 C 116.691406 179.175781 120.75 179.066406 122.417969 181.46875 C 123.277344 182.699219 123.628906 184.484375 124.417969 185.796875 C 125.453125 187.527344 126.550781 189.25 127.652344 190.945312 C 127.363281 190.828125 127.050781 190.753906 126.710938 190.796875 C 120.589844 191.601562 113.105469 193.414062 109.527344 199 C 108.058594 201.289062 107.554688 204.011719 107.046875 206.628906 C 105.976562 212.167969 104.382812 215.105469 100.722656 219.394531 C 95.167969 225.910156 85.675781 241.824219 95.144531 248.71875 C 97.238281 250.242188 100.199219 247.371094 98.796875 245.21875 C 91.980469 234.757812 106.269531 224.402344 110.445312 216.574219 C 112.371094 212.957031 111.972656 209.238281 113.167969 205.429688 C 115.289062 198.648438 122.097656 196.917969 127.984375 194 C 128.761719 193.613281 128.976562 192.96875 128.851562 192.355469 C 130.1875 193.164062 132.242188 192.597656 132.195312 190.6875 C 132.105469 186.835938 129.035156 184.15625 127.5 180.761719 C 126.535156 178.636719 125.847656 177.203125 123.714844 176.054688 C 120.898438 174.542969 117.847656 174.734375 114.917969 173.878906 C 119.820312 150.351562 147.738281 141.964844 167.882812 137.496094 C 169.957031 137.035156 170.113281 133.730469 167.972656 133.230469 " fill-opacity="1" fill-rule="nonzero"/><path fill="#6e200e" d="M 286.140625 208.65625 C 284.054688 205.519531 281.257812 202.859375 278.1875 200.695312 C 274.421875 198.039062 268.320312 196.871094 265.171875 193.640625 C 262.613281 191.011719 261.605469 187.257812 258.667969 184.75 C 255.3125 181.882812 251.054688 180.378906 246.785156 179.535156 C 237.335938 177.664062 228.695312 181.054688 219.332031 180.757812 C 207.515625 180.382812 205.480469 167.886719 196.691406 162.21875 C 189.878906 157.828125 181.777344 157.914062 174.121094 159.621094 C 163.890625 161.902344 139.472656 167.746094 139.5 181.386719 C 139.503906 182.640625 140.410156 183.367188 141.570312 183.542969 L 141.945312 183.601562 C 142.574219 183.699219 143.269531 183.214844 143.582031 182.707031 C 143.683594 182.539062 143.789062 182.371094 143.890625 182.203125 C 144.503906 181.203125 143.773438 179.917969 142.617188 179.875 C 145.296875 179.976562 142.847656 180.730469 145.191406 179.605469 C 146.917969 178.773438 148.917969 175.9375 150.777344 174.777344 C 154.03125 172.753906 157.652344 171.335938 161.246094 170.0625 C 167.332031 167.902344 173.804688 165.71875 180.25 165.152344 C 192.085938 164.109375 195.828125 170.59375 202.5 178.949219 C 205.972656 183.300781 210.0625 186.179688 215.628906 187.035156 C 221.238281 187.898438 226.925781 186.535156 232.476562 185.84375 C 237.613281 185.203125 242.683594 185.039062 247.71875 186.449219 C 253.824219 188.164062 256.019531 192.03125 259.460938 196.816406 C 262.664062 201.269531 266.839844 201.601562 271.542969 204.261719 C 281.75 210.039062 285.746094 219.382812 281.992188 230.59375 C 280.667969 234.546875 286.683594 236.246094 288.140625 232.429688 C 291.207031 224.386719 291.007812 215.957031 286.140625 208.65625 " fill-opacity="1" fill-rule="nonzero"/><path fill="#6e200e" d="M 283.566406 185.222656 C 281.5625 179.035156 280.378906 172.339844 275.339844 167.820312 C 267.476562 160.773438 255.710938 163.007812 247.753906 156.625 C 244.449219 153.972656 242.117188 150.371094 238.535156 147.992188 C 234.417969 145.261719 229.335938 143.8125 224.585938 142.703125 C 215.359375 140.542969 205.902344 140.191406 197.078125 143.96875 C 193.808594 145.371094 196.277344 149.585938 199.175781 149.253906 C 209.078125 148.117188 217.597656 147.203125 227.363281 150.355469 C 235.984375 153.136719 239.46875 159.992188 246.851562 164.085938 C 252.394531 167.15625 258.90625 167.160156 264.808594 169.117188 C 274.464844 172.320312 274.351562 179.789062 279.242188 186.941406 C 280.628906 188.972656 284.445312 187.945312 283.566406 185.222656 " fill-opacity="1" fill-rule="nonzero"/><path fill="#f77d68" d="M 59.59375 281.40625 C 62.179688 277.621094 63.328125 273.480469 61.859375 269.089844 C 60.519531 265.082031 58.027344 262.964844 54.980469 262.136719 C 55.117188 261.390625 55.199219 260.628906 55.203125 259.84375 C 55.238281 252.914062 50.039062 250.757812 44.421875 250.890625 C 44.785156 249.6875 44.957031 248.429688 44.8125 247.195312 C 44.492188 244.46875 42.707031 242.378906 40.390625 240.996094 C 37.972656 239.558594 34.972656 238.890625 32.453125 239.082031 C 23.53125 239.75 14.804688 245.726562 8.726562 251.921875 C 3.230469 257.523438 -0.0078125 267.230469 11.015625 267.988281 C 5.417969 270.945312 0.292969 275.609375 0.953125 281.078125 C 1.582031 286.269531 5.742188 287.742188 10.808594 287.546875 C 5 291.992188 0.386719 298.222656 4.5625 303.207031 C 8.09375 307.421875 15.167969 306.882812 21.652344 305.078125 C 19.671875 308.203125 17.359375 312.335938 19.824219 315.683594 C 22.136719 318.820312 26.945312 319.039062 30.398438 318.550781 C 42.152344 316.894531 56.554688 307.003906 62.851562 297.050781 C 66.882812 290.675781 64.613281 284.210938 59.59375 281.40625 " fill-opacity="1" fill-rule="nonzero"/><path fill="#db553d" d="M 38.441406 252.5 C 34.398438 254.691406 30.175781 256.261719 26.007812 258.15625 C 22.171875 259.902344 18.582031 262.003906 14.691406 263.644531 C 13.175781 264.28125 13.472656 266.601562 15.238281 266.546875 C 19.71875 266.402344 23.46875 263.523438 27.4375 261.765625 C 31.875 259.804688 36.378906 258.335938 40.515625 255.738281 C 42.636719 254.402344 40.589844 251.335938 38.441406 252.5 " fill-opacity="1" fill-rule="nonzero"/><path fill="#db553d" d="M 48.695312 266.699219 C 43.503906 269.230469 38.296875 272.515625 33.203125 275.371094 C 27.269531 278.695312 20.722656 280.898438 15.167969 284.882812 C 14.050781 285.691406 14.855469 287.816406 16.261719 287.195312 C 22.621094 284.394531 29.207031 281.996094 35.300781 278.644531 C 40.546875 275.757812 46.726562 273.738281 50.710938 269.089844 C 51.941406 267.65625 50.246094 265.941406 48.695312 266.699219 " fill-opacity="1" fill-rule="nonzero"/><path fill="#db553d" d="M 52.359375 284.667969 C 43.988281 293.105469 30.667969 294.667969 21.835938 302.449219 C 21.023438 303.167969 21.882812 304.234375 22.710938 304.289062 C 25.296875 304.457031 26.65625 302.992188 28.816406 301.710938 C 32.371094 299.605469 36.320312 298.113281 39.972656 296.167969 C 44.578125 293.714844 51.578125 290.765625 54.277344 285.996094 C 54.949219 284.804688 53.265625 283.75 52.359375 284.667969 " fill-opacity="1" fill-rule="nonzero"/><path fill="#f77d68" d="M 72.574219 290.644531 C 64.394531 291.011719 50.925781 302.210938 47.53125 312.113281 C 50.941406 315.964844 54.53125 319.675781 58.277344 323.226562 C 60.050781 320.660156 62.726562 318.179688 64.132812 316.527344 C 66.367188 313.90625 68.386719 311.128906 70.621094 308.511719 C 72.800781 305.941406 75.828125 303.9375 77.882812 301.386719 C 81.875 296.445312 79.660156 290.308594 72.574219 290.644531 " fill-opacity="1" fill-rule="nonzero"/><path fill="#db553d" d="M 64.769531 295.613281 C 65.027344 294.570312 63.628906 293.929688 62.9375 294.679688 C 60.238281 297.597656 58.269531 300.5625 55.03125 303.015625 C 52.488281 304.941406 50.160156 306.890625 47.820312 309.0625 C 46.851562 309.960938 48.015625 311.425781 49.136719 311.101562 C 50.683594 310.65625 51.550781 309.800781 52.75 308.78125 C 54.554688 307.25 56.585938 306.03125 58.40625 304.519531 C 61.195312 302.210938 63.875 299.1875 64.769531 295.613281 " fill-opacity="1" fill-rule="nonzero"/><path fill="#f77d68" d="M 312.128906 298.246094 C 317.878906 307.90625 331.367188 317.710938 342.535156 319.597656 C 345.816406 320.152344 350.410156 320.070312 352.695312 317.136719 C 355.136719 314.007812 353.039062 310 351.230469 306.972656 C 357.367188 308.859375 364.105469 309.554688 367.582031 305.625 C 371.695312 300.976562 367.453125 294.914062 362.027344 290.519531 C 366.855469 290.839844 370.863281 289.542969 371.597656 284.609375 C 372.367188 279.40625 367.597656 274.820312 362.332031 271.859375 C 372.871094 271.417969 370.03125 262.074219 364.929688 256.585938 C 359.292969 250.519531 351.121094 244.59375 342.628906 243.722656 C 340.222656 243.476562 337.347656 244.035156 335 245.347656 C 332.757812 246.605469 331.003906 248.550781 330.625 251.144531 C 330.453125 252.320312 330.585938 253.523438 330.898438 254.683594 C 325.546875 254.410156 320.53125 256.332031 320.382812 262.945312 C 320.367188 263.691406 320.425781 264.425781 320.535156 265.140625 C 317.609375 265.851562 315.175781 267.8125 313.796875 271.59375 C 312.277344 275.75 313.273438 279.726562 315.636719 283.40625 C 310.777344 285.949219 308.445312 292.0625 312.128906 298.246094 " fill-opacity="1" fill-rule="nonzero"/><path fill="#db553d" d="M 336.566406 256.371094 C 340.367188 258.566406 344.351562 260.175781 348.285156 262.09375 C 351.894531 263.851562 355.269531 265.953125 358.9375 267.617188 C 360.367188 268.265625 360.027344 270.46875 358.34375 270.371094 C 354.070312 270.117188 350.566406 267.273438 346.824219 265.5 C 342.644531 263.511719 338.382812 261.992188 334.5 259.40625 C 332.511719 258.078125 334.546875 255.207031 336.566406 256.371094 " fill-opacity="1" fill-rule="nonzero"/><path fill="#db553d" d="M 326.417969 269.65625 C 331.308594 272.203125 336.183594 275.472656 340.972656 278.332031 C 346.550781 281.652344 352.738281 283.925781 357.933594 287.871094 C 358.980469 288.667969 358.15625 290.675781 356.828125 290.046875 C 350.835938 287.210938 344.617188 284.753906 338.886719 281.394531 C 333.957031 278.507812 328.113281 276.417969 324.433594 271.886719 C 323.296875 270.484375 324.957031 268.890625 326.417969 269.65625 " fill-opacity="1" fill-rule="nonzero"/><path fill="#db553d" d="M 322.457031 286.703125 C 330.226562 294.96875 342.894531 296.804688 351.121094 304.457031 C 351.878906 305.160156 351.027344 306.160156 350.238281 306.191406 C 347.765625 306.285156 346.507812 304.851562 344.480469 303.574219 C 341.140625 301.46875 337.414062 299.945312 333.976562 297.992188 C 329.644531 295.535156 323.042969 292.542969 320.589844 287.921875 C 319.980469 286.765625 321.613281 285.804688 322.457031 286.703125 " fill-opacity="1" fill-rule="nonzero"/><path fill="#f77d68" d="M 303.023438 291.875 C 296.265625 291.378906 293.984375 297.183594 297.675781 302.003906 C 299.574219 304.480469 302.40625 306.472656 304.429688 308.984375 C 306.46875 311.535156 308.332031 314.242188 310.40625 316.792969 C 311.796875 318.535156 314.554688 321.207031 316.15625 323.84375 C 319.726562 320.519531 323.15625 317.019531 326.445312 313.378906 C 323.667969 303.761719 310.917969 292.472656 303.023438 291.875 " fill-opacity="1" fill-rule="nonzero"/><path fill="#db553d" d="M 310.332031 296.824219 C 310.113281 295.824219 311.464844 295.25 312.105469 295.984375 C 314.605469 298.835938 316.40625 301.71875 319.433594 304.144531 C 321.808594 306.046875 323.980469 307.964844 326.15625 310.09375 C 327.058594 310.980469 325.910156 312.34375 324.847656 312.007812 C 323.386719 311.542969 322.578125 310.707031 321.464844 309.703125 C 319.78125 308.191406 317.871094 306.976562 316.171875 305.488281 C 313.574219 303.214844 311.09375 300.261719 310.332031 296.824219 " fill-opacity="1" fill-rule="nonzero"/></svg>